<mxfile host="app.diagrams.net" modified="2023-06-18T17:11:39.541Z" agent="Mozilla/5.0 (Windows NT 10.0; Win64; x64; rv:102.0) Gecko/20100101 Firefox/102.0" etag="lzwRKEIlryCwe7BgY31j" version="21.4.0" type="device">
  <diagram id="R2lEEEUBdFMjLlhIrx00" name="Page-1">
    <mxGraphModel dx="1314" dy="727" grid="1" gridSize="10" guides="1" tooltips="1" connect="1" arrows="1" fold="1" page="1" pageScale="1" pageWidth="1200" pageHeight="1920" math="0" shadow="0" extFonts="Permanent Marker^https://fonts.googleapis.com/css?family=Permanent+Marker">
      <root>
        <mxCell id="0" />
        <mxCell id="1" parent="0" />
        <mxCell id="xRkAMs9unRZzOuT88SSD-38" value="" style="shape=image;verticalLabelPosition=bottom;labelBackgroundColor=default;verticalAlign=top;aspect=fixed;imageAspect=0;image=data:image/png,iVBORw0KGgoAAAANSUhEUgAAAWQAAAJ5CAYAAACZu0r4AAAgAElEQVR4XuydB5xcxbHua2Z2NgdlISGJIAkBEjljk20wBoPJJoPJOYiMiCYHkw2IaGNysknGgI2vccAXE0wSCBGEspA2z+zkef+v+4wQ9933LuZiPJJ6+C272p05p0+dPl9Xf/VVVaz8jxfLFl7BAsECwQLBAv92C8QCIP/b70EYQLBAsECwgLNAAOQwEYIFggWCBarEAgGQq+RGhGEECwQLBAsEQA5zIFggWCBYoEosEAC5Sm5EGEawQLBAsEAA5DAHggWCBYIFqsQCAZCr5EaEYQQLBAsECwRADnMgWCBYIFigSiwQALlKbkQYRrBAsECwQADkMAeCBYIFggWqxAIBkKvkRoRhBAsECwQLBEAOcyBYIFggWKBKLBAAuUpuRBhGsECwQLBAAOQwB4IFggWCBarEAgGQq+RGhGEECwQLBAsEQA5zIFggWCBYoEosEAC5Sm5EGEawQLBAsEAA5DAHggWCBYIFqsQCAZCr5EaEYQQLBAsECwRADnMgWCBYIFigSiwQALlKbkQYRrBAsECwQADkMAeCBYIFggWqxAIBkKvkRoRhBAsECwQLBEAOcyBYIFggWKBKLBAAuUpuRBhGsECwQLBAAOQwB4IFggWCBarEAgGQq+RGhGEECwQLBAsEQA5zIFggWCBYoEosEAC5Sm5EGEawQLBAsEAA5DAHggWCBYIFqsQCAZCr5EaEYQQLBAsECwRADnMgWCBYIFigSiwQALlKbkQYRrBAsECwQADkMAeCBYIFggWqxAIBkKvkRoRhBAsECwQLBEAOcyBYIFggWKBKLBAAuUpuRBhGsECwQLBAAOQwB4IFggWCBarEAgGQq+RGhGEECwQLBAsEQA5zIFggWCBYoEosEAC5Sm5EGEawQLBAsEAA5DAHggWCBYIFqsQCAZCr5EaEYQQLBAsECwRADnMgWCBYIFigSiwQALlKbkQYRrBAsECwQADkMAeCBYIFggWqxAIBkKvkRoRhBAsECwQLBEAOcyBYIFggWKBKLBAAuUpuRBhGsECwQLBAAOQwB4IFggWCBarEAgGQq+RGhGEECwQLBAsEQA5zIFggWCBYoEosEAC5Sm5EGEawQLBAsEAA5DAHggWCBYIFqsQCAZCr5EaEYQQLBAsECwRADnMgWCBYIFigSiwQALlKbkQYRrBAsECwQADkMAeCBYIFggWqxAIBkKvkRoRhBAsECwQLBEAOcyBYIFggWKBKLBAAuUpuRBhGsECwQLBAAOQwB4IFggWCBarEAgGQq+RGhGEECwQLBAsEQA5zIFggWCBYoEosEAC5Sm5EGEawQLBAsEAA5DAHggWCBYIFqsQCAZCr5EaEYQQLBAsECwRADnMgWCBYIFigSiwQALlKbkQYRrBAsECwQADkMAeCBYIFggWqxAIBkKvkRoRhBAsECwQLBEAOcyBYIFggWKBKLBAAuUpuRBhGsECwQLBAAOQwB4IFggWCBarEAgGQq+RGhGEECwQLBAsEQA5zIFggWCBYoEosEAC5Sm5EGEawQLBAsEAA5DAHggWCBYIFqsQCAZCr5EaEYQQLBAsECwRADnMgWCBYIFigSiwQALlKbkQYRrBAsECwQADkMAeCBYIFggWqxAIBkKvkRoRhBAsECwQLBEAOcyBYIFggWKBKLBAAuUpuRBhGsECwQLBAAOQwB4IFggWCBarEAgGQq+RGhGEECwQLBAsEQA5zIFggWCBYoEosEAC5Sm5EGEawQLBAsEAA5DAHggWCBYIFqsQCAZCr5EaEYQQLBAsECwRADnMgWCBYIFigSiwQALlKbkQYRrBAsECwQADkMAeCBYIFggWqxAIBkKvkRoRhBAsECwQLBEAOcyBYIFggWKBKLBAAuUpuRBhGsECwQLBAAOQwB4IFggWCBarEAgGQq+RGhGEECwQLBAsEQA5zIFggWCBYoEosEAC5Sm5EGEawQLBAsEAA5DAHggWCBYIFqsQCAZCr5EaEYQQLBAsECwRADnMgWCBYIFigSiwQALlKbkQYRrBAsECwQADkMAeCBYIFggWqxAIBkKvkRoRhBAsECwQLBEAOcyBYIFggWKBKLBAAuUpuRBhGsECwQLBAAOQwB4IFggWCBarEAgGQq+RGhGEECwQLBAsEQA5zIFggWCBYoEosEAC5Sm5EGEawQLBAsEAA5DAHggWCBYIFqsQCAZCr5EaEYQQLBAsECwRADnMgWCBYIFigSiwQALlKbkQYRrBAsECwQADkMAeCBYIFggWqxAIBkKvkRoRhBAsECwQLBEAOcyBYIFggWKBKLBAAuUpuRBhGsECwQLBAAOQwB4IFggWCBarEAgGQq+RGhGEECwQLBAsEQA5zIFggWCBYoEosEAC5Sm7EsjiMspWsVMpYuVywvuzHtrDzPyxm9bbC8MO/AXOUrVhOWZzzxWI138D5wimCBf5nCwRA/p9tFN7xNVggX5xvucJ8ALjP2nuesZ7Ue/ycB4zNyqWYO4N+jlmTDRuyHX/LuvcWrS/6WcCds2IpZyUAXCBeKvG9VLRSEWDnw2V9L5WsX+sGNnrk8f9l1GXLFj62QmmhfdZ7jxWKs/kcn+GczXXftgHNO1pD7div4Uq/vkMUil1Wk2jhgPGv76DhSFVtgQDIVX17lpzBlcoCzDyA2WVdqd8DfN18LbC+/FSAsmBFwLJcFvCCgABMuSQw5N8C0giM9bd4rGwNTTGO49+p/5WBafed31WAW78Ae91r0XeH7maNNWvYmBVO4dzvWCr3ivXlpjKW2fxJR4pxSn/uMoCsJUALgl8Maqy5YUMb1PJDq60dzljq/gU3gHE7WxV1BZbLT7ee9KssVimuOWMZdgrZ3AKuib9jozXH3gEot/0LxhEOWY0WCIBcjXdlCRkTm36A5GOb23Od5XLzAJpiBHje69V/JVBUQFoQ+DlA9ijrYRggBJT0o/4Ss4TFEwYYxtz7iwU8QyFlBOMenKN/AdzRP/hgdAAdS3CfH2Z1/RYIqr1v6Q4evZ9xlRwA80t+p3EWC5XR+De70RVrrTYxykYNPdIa6kfpqF/6rpStYPnCZw54OZClsm9aR+9vHUXiFiL+XmYVcYuC+7e/wGg98UN11x2zMSMusaaG6vLcv7Qhwhv/aQsEQP6nTbZsf6BczlpX9nlLZ9+wvuKbzj0VsAjUYmAczjC/khfoQUbeq/NIo/c5Z1d/i2iKRXgJEMfjcUuAezVJAJnj9PXqOB6CYw50gXh955VwtK8/WMz9XpjJz/GSFfpqrHWg3u/H5F4V8KuAXZkTcc4SoJ/PmuWyZc4dZ0FgwBwb2HYfKxb4KR+zAW3bWP+Wja2tZS1+C6CyGBWK7daZ/r2jTfLFT/HE33V0ilsAosXHDb8CttF375V7usQNLdolLL5QxTUCbDS03/42bPBOy/akW4auPgDyMnSzv45L/WThcZYvzQX4ItxxYCtAFl7C4RbjeMt4zlnxufKQAUWAJ5EUCANlvK8AAAqocziQXT1FGz48YQ0teMdxfGQQNJEsWz4Xs+6ugs2fUXTgW5OIWZJj1Naa1dXzBbVaKsY4l0e5+ibAvAYqJF60YjppbYOE1xU0lMeucUZeKGAZ43i6iGIe4E+bdXcULFlXtto6zs+qIE89JnB2XjTHBbgLjKnfgP78rofrSkeAqkWBc7OIgMv8Tp50RKdoEdAOwYFuBLyLgbAH42hhiRaoyoKjxanEeRuTG9u4lU7+Om5dOMYSYIEAyEvATaqmIX644GDAqBfw9KOSN+wAOQ//C3DKm8zmi9Y5v2jz55j1dPJ76Ifl2XXXNcTs2lszNnV6yT7pKjrQW3VEwq49s9kaWwBBfgEmWzxZwmuN2cL5BdvntG7LgYufe8ox+9YEs6vObbYXfp+3s27O2I0nNtga69YBpMJGCIFUjfUbJCD0YO290YpHKpAUgHrAk3fc2122Bx/ssxWH1di4CTFrG2CAP8AMQMtjjmn14b2FTMKaWvPOS/eUAkDt2BLGXYMNAGQtRtod+GClt43/+XPwdVx4tFY4J1/BRV0j3/t6SjZwRNxqahOOsqmLr2OrjzmrmqZAGMu/0AIBkP+Fxl0aD/3hZweBJSnvHgtXBCT6wtNMAKQCkUy2YAvnFu2QSX2WBaVyANOhu9XZrts02NWTU/bim7w5eg1uidnk81qsqa3GURYC6XgCRURfzN58NWtn3pGyWtETEaBqHXjo2jpraWuwmyb32iMv5e3Swxts7fVqnZdaxksvpJLWOgBX3KFghSKJQFLMNsgdxwsu4GFn8Y5nzyrawRd0WR3e94DGuG2+Wq1tvUWNDRsWt9qmktXUAe6FWsul4tbaP7eIj/Zeb4xx1ziP29EsfXDGLELaMRTFg7NAQSNbgQWrk993Af49gO6HnPONmeLgy5ZOl627jx0F13bcrnW2y05I8Thmns/GCqvY2qtfvDROpXBN/40FAiCHafFPWKBk0z77MYAUAbI4YgXrIspCVIO29Vm8xM9m5+3A89LQCNAAgOw+O9baDps32AsA6HUP8vnopb/de1ELnG9NRBUoFGiWAaB+8XCfPf1ydlHsTvxycz3e7A2NgGmdHXZap83rMjvtR3W24Sa1zkst470WUglraQU4IxB3lK6jD4TPeMc6KdrjfL5k6VTJnnw6b3c/n3ZefwYuucgCIk99n+/U2357Ji3ZwOfyvB/Pu61/X4W65qg+OBiDU4nxAQFyqrdoD96Xt09nQrd0ley9eXnrhYcWQyJbJHifeG0fsvOscZxfaGwKZB60Y9IO27eBfyehfeKW7upnm64/+Z+4R+GtS7IFAiAvyXfvGx47zK596AA540DFBezEm7rtNp5tjTzkmPOQ58wo25GX9LqtfRIP96Af1tp236q33s6Y/ehsUPRziYT98pxmGzQyAU8sL1kXFXPAduL53TZfnqOjBTg+/zsCgNxp23q8z7jtdES3ow9O3r3ONtkMyoLzOA85XWON9WiYoSMUY6tr0tnEZ4s3BvjrE462yGaL1tVetqMv6LVueBFdkwdknatsJ+zZYNtvmwTAdZyE5XsT0BkAciT3ELg7DxkXXj8XcPx74cQnXtRr789Gtsa4WxvZT0hsUeGKtUhU1H8RMvvAow9OnnIA1/f9OuyaZJcQt475cdty0we/4TsdTvfvskAA5H+X5ZfA80rG9REcssVI6PAYgkpBgOzlaeJbC2yzBcizPinbsVf1uquUkOzHu9badzcFNAHEo87vsulwzP4Vs2uObrTV1qpBXQEgA0oC+s6FBdvv7B6rwausvBKA5CN4x7VwC+KUdz6ix3mYx+1Ua1vhzYrDLqOyyHUn7L1H+ywOktc3m43fVafx4BkjuhivSzi6QvTCe2+WbeJN3VYH3SGquALI8mgvO1pUSMLzzQrqpeF0EwA9mNw42HPIAnkHyGUAG/qhp7NkRzLuOd1QHYzn/ivqraU/45lSsOdeLtgnn0JXzPac8X99tbJwPHxjI8HFGnYaSVQmAHzHCNti02uWwNkShvxVLBAA+atYbRn9TLHcAyD/2Ae1hMfyjgE2n2mHhwf3Ky8xkynYp9PKduJ1PU45IfA5bPekbbNxHSqJpP2E37/+EenSGR9om7hHvW29dS2BNLb+DpDLNm1a3k65ttdT1fyvBpZh5eVjdsMFDQTOkk7ettPhUjuU7XA85u1/UEcw0I8r1xO39x+ELuFfDeRUrLarpxbkFcdqoDZqUVcwJnG3v3k2Z7c90+c+Jw98ESADzref02AjV2SRQL1Rgorp+ths7p/7rHEgwcidtcwI5DkmAF8qCZBLeNwl2/eUbutjoWqG6nj8Zw0kumgB8V6+U1Ew5o+nF+0TOOTf/TFv704nmIcXfcCONbbvXnXwzjWW60tYDxuJUctNshHDJbULr2XBAgGQl4W7/DVdY5Hsuw8XRoCsfbf0xniOAlxRDY6/BZCzmaK9/2bRzrwdNUYEsKIatt64weobEvbGazk7/3Y4Ww6Rhzfda8ta2/OH9VYrQOaXeQJgjzyWtvv/mK3EDt33C49O2gYbAMgoMOSNi7KQh7of/PFue+N9k1AigM73CpBTxvpgDa2AJ4AsOCw6QPYesiRzfdAhf3ixYNc/nnKAWQFkHUPjfvDyRus/OMGYJI+LW/s7Ret4I2NtI8xW+q4H+JIUFlAgxaI46aItIJi552laiAgQtsbsV7c28Xk8cnYOonWcZlo8cqSZllRQtE43wb4WPOQaFotCpgYpXtzmfRq37ba5z6lPwmvZsEAA5GXjPn8tV1kodeAhH+pAxSd78F2JIACTk4fxXx4uNgM3++ofS3bRwynn2Spp5Kgf1QDIjVbfGHP88uEXdS8KcG25Wo0dcTCAXAdYwhvkcgU75sJem9eJNE60L18FjvHkrWznk3UO9HW+3Y7uoj5FzHaakLQfH9GA5yv9L2NAOTEVD1mURQMqjlVFWYheULYdRHOivsZx0PLkX/5LyS67T9QHIL+4h8zPj13b6OgGfbaQg899s2Td76StFVnaCtsoaYXFiCySeAPHY2HKESSc8UHRDroIQObz226YsHNPaWQhIOCHh51hXNI1a9cgwJcdBdwxKUt0nQ6kWVDgwHu7zUYMPsNGjljva7l34SBLhgUCIC8Z96kqRpktzLTpHSc44K3oj31QT0kZPmNP8q4+gO6pR/N2+4t9eL1SH8Dz7lNjW27UiBYZWgAPdv/Tuoy3OiBavi1ul58JWNdDRQBS+vzeJ3cbtKx76T2brh6zc0+Vd1zr9L2iR3Y6rMtJxbZYudZOPrnB6YZdsggc7/sPQFngfTfipY7bRUAo3bG4DyiLBn4uJhzX/fbrJZuEJ/9FygJvlQSRB37a5BJWFIXLA8id/yha73t91kom9YjNPWVhMcaM118QIKMueed1gpHXa2dgdvJBtfbD7zV4rx1A7mnn2ghqJusBYugVOb4KRDpQVlIM3+OQ15LMLZxTb9tscXfwjqti5n9zgwiA/M3Zeok/U2/2NZvddZH3NqPaFNqGu0y1CJBzeMhSL1xzY5/98b08CgsVCkKxsF/SNoduqCXLrpBN2NO/S9sdT+QcCBHDstvPb7aGZigLjj13dtYO+Qn6YzLzKlK0m8+tt1VXqeXYYoYlHyvbdw7qQk0Rs9UHJO2i8/CQ0QsrUzAPIL93nwC5ZM2A/VjnIcurlyuKF47WuMTPWQB52pSSTbzBBx/Fi2RRZmi8IwbG7LZLWSQAW+0E8nC6C/6WseyMnA2B0h04Qd4xfyNIGY8AWXK/F18o2GX3e1nfnfDdYxlzAU5HgD5/mtlHf8oB8jVWz7gSjL2hX8zqGgFm6BYHzspo5Npaava0NdfYa4mfM+EC/jkLBED+5+y1TL97Qe9D1t73oM+3AIhdlTXRFnzVRHRBgW17HxzyqZek7ZN5UA5OgFG2Uw5M2sbr1qMgUKJEwl79e9YuvKvPAXISnLzlzCbSnZ1Mwh58Cv74uazzMpU4QUzMnrqzCc+x1nmasYTX2m19QI81QYGsSJbfdRc3AXBROjVJJVPuhUN2gIyHDCDLm1XgTTncCdKslaWnjMKZH5XsmCs/95ArgcaxI+N243koOvCmJeXL9SRt9m86LQ5gr7gDVZQJFgrUxUlbveeYMwDy/fdl7e7fZVCTlO35u1qsRn/j+pXl9/Cvsnbb/WkbgA0GAsIjAeVxw+O2/HI11oQnXgt/HGtG1dGQtB12vBt6hu1EeC1TFgiAvEzd7v/dxc7suNSVs1xUpUxg7Oo3+DoTCnLl8gWCeiU74cK0zVzoOWC9zj60xtZdq95l08UAxjR63X1OF3cLnvHZq05otGEjdRCzs67otalzlMVG0A9eY+etEnbakfUct9Zxv5agnCee+HcO6bbGurgNp1zn5CtaAOSolgaKhXfvSVuNA2SzVXZ1EUcHoI5DBvQEyDkyOebPJIsQ3XCFsuhDh6wFZ/zKpHlPAuQBSXnd2a6kzfxVhyUB2lV2BziVFagqREjeYrwnn8fjZsC3kMr9KzIMh+Nh33cNBTeUTi5ApuDRdbf22l/fzNmKpIu39YtjMzIBOc5qyxF4XClhQ4bwOzzlfk3H28pjtvnf3azw6SXSAgGQl8jb9u8Z9PSFp1umMM3xxyJvXTEdJ3kTIPsaxgVSpbNpvM4L0javQ7ICV/HBfnJMra22mpI3BMhxS/WYXXJLj739MToF8PJignJjV006DvoHx/a4NGZJ0JSg8Sja3MGDoCugDQSW8pA7O0q2ywnolMHYYa1xu+vKZkvidSpVOY+H/PYvCSgWio5D9ioLL1FD7IyH7GVqOcjajnllO+BcBqNx8lUB5LXHxe2qsxoZm/hhPOTuGpsBINfyplX2VPDNJ4MgYHYuvjjkvgxp3JdA1XyStzVGx+2Gc1qsTDq5dgRFqJYCMj8F8CpSPqe2cCl73obuxS/GrXA1JT9H/ntucjjrv9UCAZD/reZfsk7+yYLTHCD7+hWqGew1xiq+k5RWl9/lyRTpS5Xt+PNTNo+aDarnkCRQddVJSVtxNFph0bhKooB6uOvBXnvyLwUHyKfvWW/rIV/7FG3uMZeoWLvLc6aLh9lzv2gG/EklzgBaktslC/YhOuXD8cKFZf2gKh66rs1qyIqTDC/XV7a3BMjQJ00khqy2h8KQgLBkapC0NXDV4n/zyDW6FpZtnzN7XFLIItkb1/TDbyfsOGpkxEHQAnREtjtuMx/vdGngq+zp3+w8ZBQbygDxdSwKdsQpvTazt2Sn75O0bbdtgNKg2BBUi8bl8BaZmzhi55JXkFn/cMX6JSVM2CqjrgCQV1iyJkcY7ddigQDIX4sZl42DfPzZKa4NktokOR7Z8cdeW5sElIr8vqD+eEi2DidbLQVIiQNWAO5nZ9bZclASrmw9IFcC5GbNzgC+qiGBlnizWtuJwjp/eTlnF98N5+DQy+yKk+vsWySUZNnyqwKcUyTUFOxPf8nYebdA6PJSUPCJn7VZrTxkebME9d65L0WGN4CMtnc1ebQCZHnJAuQmvFrJ6/Cge8ms24uKchpDJXVaa8Gp+9Xa97dTx5BIF8w1zXisA88d3pdYmxYhUSDxRtKcKVYkQO7tydsPjupGvmf2wKUNnhNHDVJGo+y9YEkD/YW5anHuHxE4O8UG78hRcW7UZdbYsPKyManCVX7BAgGQw4T40hb4aP7xlsnPjDTIAhJ5xXIWVUPY0wl5+t719cRs34ld8Kyq/FZytSzuOK/eBhC8Em2g4uvaxncszNnRALJogm+tkrATj2ywky5N2XukFyvQJy/59z9vBuBqKDbEtl8V5VRAKF6wh5/M2ORHKTwk9oT/PT+5nyWbPveQ31UBI+phNBL0W80BqNQZ+iyURSNuN8ieh15JdZXtRwBypciPaBJ5+teeWm9rrYXELgLkNDUvZv26A881ZmPxkN2xkLzFRYDDm+QZWw8lRXc8psuGDIjZnQQEG/vLk1bkk++uYr8vIqT/uZKl+s4CIqoHebXjlMv5Wltp+bOsrTlk533pibkUvTEA8lJ0M//VlzJ19iH0putwOmDfCcQ5fa6UpYq6i1Mu8F8akNv9pG50xar8xsYe7/OXl9VZ8wAAmQCZpG0xyc7QG598SY/NWFiyccsn7CcnNdqPJvZaL55tAprj22sn7JLTVUhI/DFg5QoYiYct2t2PZOyR53KW5r0ax3O3tFk9fLEy4lRS893HaJfUXrQGhAoT9vHZJS6zDplashlAxmMucMA0XUn2nthN/w/vxFYA+bbzG23sWGme8fIpeJ+G2pj9VDueK22VoEDK8vKdhwxfwlhVx6Lzs6Ltfw7KDw5/5wXwzyxESpRZ+FnJ3n6/ZK99QuEiTpTBg++kEtwc7JTGPlcd22irT1AtDwKPhaQNH3SYDR343X/17QzHr0ILBECuwptSrUN6d+aPALWc95CdukK0BYALXeETGuT15S1FGvAuJ3bTC84nhej18NXUdGjzfGxCkS3AsQBY/envfXYtUrHlyKi78rQG+/7xva7+sTqE3Hh2A16q6jr4ymeSkpmKDVHc6O5Hc/br3+doEOoB+Tc3tjlNr5IqcumYvftE2orzCgAoiom9xVCIYhBlAfAByDGAWQHIPspvHnhGt6XxcD0g+04nP7+kwVZcEVWHALm31noJ/s397UJrhAIZs5uqxcnblgYZQGbBETUzb1bJDr2wE/mb+OAKSazxojVGFqhrEl/egl2kpljQUXafu+zoelt9PPw63r8VKK7ftANKjAOrdRqEcf0LLRAA+V9o3KXt0O98urtziZUU4jjQqMZwDVtt13JI/ekA7F6AZvdTeqyebbijFHj/r6jSlkT/qxRkR1qoxgUAPnNWxo6CtiDOZrtslbRbn8w5PleVz35NHYg6skOyaRQRUAkCNCMBJRYr2uR7M/bUS2omSiIKyownrmm1NmRj4nIFyFOfpYPzp1lrQPM7YR/P+TotsjzkFlxYvhdx6VV3+ZCzu60Lr1qUrlNZ8N8j1zTZ4KE+JTqLBrn9w4K1/7XDBoyI2citfFIIzaXgo+sxg+iPkn38bt6OuUYlR/2dbyAbbxMSSFZYqcZWHBq3DddOOi9di9hTz+ftjqeyrgbypUc12IQ1oFKURIOH3BBfz1Ydc/rSNn3C9XwJCwRA/hJGCm8RsJZsyozdo5Rpr7LQy2mQ8fZcoA7VRZ7WId0LqHh2dq+TpHnKFMC8SYkbBNJQSoi08G2RlC2XtZ2P60FOVrb1xiTspSm+LOf2G8Tt3DOa8ajxkCk4rwxA9dPzgFyyn9IK6sXX8y7I14Oq4bErWm3gSLVRomZEb8w+oYpa15S0y+SbIA9Z5+PMRZQRtQCyisoXAOQsHvFRyN7mqdUUbxHFIjrmqZubrKWfV4Nku2tt+h97rTijz0Z+K279R/vayuU4Xi0yENEXeQjuuZTY7DcqS/3lBHQNCR4oT5BlOzWKb+v0eRupc67O2Bvv0w6KUV2MxnoCfEN3/fQAACAASURBVLWrjAcgW2EkXUKuDtNuGbRAAORl8KZ/lUsulTL27qf7LAroOQc5+nIZZujZRBcUoCxmfFy046/C5Yw8Rf3wJAAXA1CzVDKLQwnIo3a0haJhgHGytkRBnZI9/kLePqKx6WFUbxu9MsqKvlrHuZbwhJMkgZDtoUoadhZe9dufep2zaIafT2q1kav6rh1ZWi3NeKVkC/7eCyCXbcJeqq62GCC3eUBW0FA89gkUA5q5QAXiyxzLx99euJNgIqCq4WW6am3Kw+1WSybe2O/ReHSwrogFiMr1CVQW4pILLER1dQAsnISom0qwsbJofW4LBfFYsKBmeiKv/9yD6m3dDdQGCiqEQviFzABbf41bv8ptCp9Zwi0QAHkJv4Hf1PCz+c9s6owj5O9GXrLnSOVN1gFcci/FK8tDfu21gl18Z58XFvAlpuHXN6PJhdpwwTmAGFh20jN53r7KGe9DIqagnXrqxVEnlEt4x1Q+66NucQ3/jvN5sj3cSnDASb3WRaKFAzz+u/aYFhu3HoDMGLLUQ57zNkG4P5HJB8U7YU/fSVrnFc1Q11rnUp4FjKosd8pl1HmeI0BWLQvvIf/+Hjx6uHF5yH1dNfbWfe3WwFjHfd+siZKc2hmUEhwHlYXaLdHr2lWg0/W4Wh9RAXrXUcT5wfxCOwbGniGQuNtJKtEprUbMTtojaVttjbfNouZon0w/22DN27+pWxvOU0UWCIBcRTejmofS3fumfTr/vEUg66u9eS+5luI68nidh0xiyIt/ztlND2W8EkM4BI6qdGYZZM5S51epyHzCZa1VtLgx1SrWfypirKw5KcZUipIaEOlUEQpA6ooIkPnY9w/pwquW1+sEaHbRgc227uZqXCrAS9j898v26e8ILALIq+3GAqCiPU6LTM0IB8iS4ME34wKfSWeT92d4BJXKopXP/Pq2Zuf1C5DT7Qn7611I3uCuV90sZkNXUSEgecXsCmqo5sb7yozbtSl1mYsalk/0UNFP7QCcg64WV/z9+T/k7Lr7VcfDL2j7bENh+j2VNKNMRRaVvrYIkKNjVfPECGP7Wi0QAPlrNefSe7DPOp61OQvZRkc8qOOQFbADYOqbfOKDwKUAZ/C7l3J266MAMn+XzEvA+vTkJkALXTJ0gtKbP0MC1kJxnRpoCFU4k1fsi7cLpL3n6Pr2cYwMqo2mNnnRqkSkds5l24H2TeKoJY9TNuCkPRpt0+2VEu3Le36mymrPdqH0oE7EjrReot6FC+oJkFto90TKnd6bZ7xnE4h7F5rFechwyBuvGrdLzoZiUfIIOSrpjqQ9c8NCq2N1WWWc2erfEm8uvGUBoJxnvgauW2N2AUz1FWRR6CpY76w8C0LZ+k+oI5AIeMeLVLqL230PZ+zBF3PufFqwttsobscf2ugWNalQCulWW3/NOyLee+mdU+HK/m8LBEAOs+JLWWDegsdsbsc9niCoeMfygAHO+sYKIFNEB5R79vcZu/PXdH0GcNTZWZ7g07c14kkScAOQ5QW+fDc976Ag8ko/BpCHrEDBncE6luoFS9fsGA33VUjlrXUoldXkIVNYSHrnncmIczSHz0i2k7ZvtO/sDuiBcH0UAlrwUdk++o33kEd/J+baLomzdpRFC7WTOYfoBAXjzro6BSAXXFAtAw2y7/cSdtgBePRwwzk45dSCGpvzq3ZbjlyNYaRUl6AoypL60ZOvtCBj7d1Ju+2BrP2eAvbNjGd5zrkG17LuqglbYxcyAwc2oD5R81SK97ND2OGITvTRnmcWKG+2VszOOIYFgIsu4pHnepsdIMfVJDC8likLBEBepm73V7/YOfMfpljQvY4eqOiPnYQLUKl3qchyXAEdSNxfIee6h/KZkqkpYUIc8lO34yEDVn3QCQLkue9+H082ZW+/+hJxuh7kaRSTp05xAs9VTUXr8SjrKJZW1wyYNpRt8BgFvcQ6kJ5NcG03gmKe2lBrpLIds02j7bivAFfeadI++xhAfqab45qtsCn1Liin6VsuUWGttYGymL6ucgGe5QwoiykUOarokE89sNZ2/B5yNnWmZgHpXcB4n+iwYevEbNimADIZeuU49SnguMUNu24fnHnGpwV76x95m4/8ra4ToKVM56hN6JEH1yy9sZQi7Z/F7IBJJKKwqPnSozFbb/W4nX8CHLsAmYBgX1cDlMWdLEpK3Q6vZckCAZCXpbv9v7jWGbPvtQVdDzslgtMguwJDjl8ANH2iRwmOtciW/dobU/biu/C+UY87AeZv7mgiCCYPGV4W6Vtz4Vhbfa2tvXc76RSb/s6b1kZArx9UQAs1KVQ9zikW+NrgezU2fCXqYAjZCe6p9dKPThYge45Vyoojt2i0XX8sjhgPuRMP+ROzaU9RwB5ME5AOGqOh+noWdQBygr564nYlfTvzyh6b8onvbZfFsT/nyFrbdgsyBEWX9NZY97yYzSdLb/mNONaGCuDBP0NViF4QXeJa3qkdkwNm0S6qWeFaoDrNdLFUCyCjl1adZqRup0CRUIrZFeCv5zpVWe5CshQFyGpPle6stQ3WuosFLdRD/l9M2SXyowGQl8jb9s0P+sNPbrbu1LMgju+d5wN2vqZDPbpbpywAiAogzcF0XV6IMqIBWsCpMgCfZ26HsogAOYfSorTwh7bJFvu7C/nxcYdZx8zp1g8euQ0AbQOHagFzBQFr0QJvulPSmltBavHMeMhd8LMHnEEB+qjYsmRvh23WaHsdLu+VFlJwvhVAVmLIkHFlG7qGXzxKgLI45CR98ORtFwlCnnZFyj6Y7ivTZQHEyylotPEG6hTNAtJTY50zaKn0fIetsAWF5ccrgMffCMAVkaiJ0nDNS6WY+EKPPKlHZClPu4i6EV1zw5299swroL4sA+D3I0Nx/MoJu/gUKsux+OTZPYiz3mBNALmGlSm8likLBEBepm73V7/YN96ahMb4TSdNc2BCMM/1qJPHKQ/ZtTPKuyDeDofTWQMwVangGhUDYnv+5GQ4WX6Wx5klky41e3PbersT3LH2OHAPK9PzvgVA7w8g9yMAV0dCh4JmI9eM28pkuDUo3dmlTRdtPoXvD52kBqo6P1QAmXoH0dF636OSzktPd9bZQoKGHzxJPQ2ON3ilsi23ttKmfbaeALkW3rus0phwzmfTMWQKgKxazALkO3/SYGPGArhcSx91kBe8V7Suv3bbmO3j1kYh+ZK4XbJUClRmk0453Quv7Wp6iEIhSClgjjhwpxZRxTeGnqbs8kmXddm0WV4/rc80cZ3jVyJt/GzVvpDuGdsIkNe4E9uRrhhey5QFAiAvU7f7q1/sH/90IHUc2n1xH6cO8G2QnIdMjzhRFuUEgAyobXVwt6Md5MDW46EKjZ4QIAOg4pBzBLb65m5qW353ohvQTnvtYPXs1R0g4wj3p4ZxA3yyVBnDx8dtpbVrHU8t71iUxZw51B2+gKCg6BN5vdAk+6zfYAceC8jynj4B8qdle+9X6JA53oBRZsPXFTLKQ44AWcoQihSJ4rjshpT9J6ArvjsHwD5BQfz+QzzXnUKDPOeVrPW9naZZatyal9PCA4dMBboiNZrzqDLSVJV7+vGMjRuTtKZ+qEf6+w4q0j4rHbrSWTpLAbrdJ0Iuy2PGG1fRJS0oq46K2820oIpLSsf5U+21tt6E2zkGJHp4LVMWCIC8TN3ur36xLzy/h7X2z7jeefLuXGKE2imBNnUCNzGmiRyJDQDyQT2uFoWkcU30pFNRoMdvBpDhSzM9pEsDyPn2Te3bW0SAvMf3rBF3sQVPsj/BPQFyE3UvFPUaBkWwAmnF0jq7oB6lNz+dXrDjLhMgq0OJ3/rvznuOgGooIS3LwMEuhGZ473EFCwH45QnGraPPMkYBMvRHrRqqqjErgHzz3b32HJl98rTl8f7ubrL0GL8ak6Y6EjbjzxnLfZix8XsQbKT1kgJ6MZC+QNsm0RwZegjucFSn+3kYwcgG9NHfozZFP947fPk4diszfrpOU93t8Ktwk7342vcbZI0Z2Gr2yE3NaKVVNF+AnLQ1V7mRIOeQr37DwieXSAsEQF4ib9s3P+hnn97d2gZmAJYvesiSUNQ1ulbJUAA5POSSbX84FdsorCPgUeW2Ovjgx8nUs4iyUK2JUvdGtsm3TwPEUEz8aAdrIs2vBR5W3T8G4Bg2Sz+G2mIo0rGRgFstnK94Wnm177yVt0n0rnO6YQBUiPx92kOddKbnmRXUWzgzZu89pqAePeqGx2y5NXmfsvUcINcR2BMgF5zS4pcPp+2RFylUBCAL4P/wS7xVQDWHZriXpJDpf8hYYUbG1tiLzigsFKqpHG+GHqGmswKKqmi3/RHti+pViDmugK2wtz/XveO6dfYOVMUrM0iv5ndSWFTqgWiMz9ze7Pr36XjykMeOutgG9B/7zd/ocMZ/qwUCIP9bzb9knLxE1Orpx/a0/kMzUAdeVeAoC3nIgGadeAF10Ehk6XhRsp2OoSWSUx34QJe0wI9Ry8IAaQXJlElXTm9gG298uvWmeu2Ag3a3ZlzFVjxWsNIBcit98mIA+aBxNbb86hUPGUDGA37hhazd9JgSK1RvWXK1mG1F3YuzKIKvjDnpkNsdIMMhM7R+w+K23BoSWXjKIomHXN+GjjgpkRyV6J7O2C+eyVF8v2zNjPGJO1qcwiNHh5LehTX2wbO0ilqYtQk0N1UXade5mmOohoV4YEn9vnNIhzo5OUB3gbwoyU7yNvejA2GvPfaVOX1ijd4n6uKFu0nVJknGccgA8sjBJ9vw4RsvGRMkjPJrs0AA5K/NlEvvgQr5jD3xwN42cHjOGsmYc4CsamekDguQa6l45spb1lBOktTj3U/scV6jgm7yApvZrj9OKU3VMhaHLFC29Dq20cZn27z58+zYYw4wNBhe9kZmm5QHbWTxJfAcB45L2HLjUEUAVjEahkpvd8ttffbbN/BuATQBoDIB16MbySWXAsjSOpOo0T4rbu/jIatZattQ0p3HS0anCm0AMtXeGvoByHVQFgQBX/h91m6mvrLSplfgvXddDQGOBE0ytZ4FCZtCsftaXPHxcMg1jEkKi5pWOG08ZdVLlpf/XQBZ43CA65125wWLVokK40VUhc9C9Oy3B+kki8izdwqQRVlAk7TX2IDGg23MaApnhNcyZYEAyMvU7f5qF5vubben7j/YBi2fp+sHIOPoCAX14HVJ5KhtUGKIXMCcS9o4jNKb+qey0fSnIRSOP+/UiLJAh5wmUFZOT7BNNjnPPvrkQzvztKMNlTIeMvwxlIgDZD5TA/88YGzChowl9Vi6YTxoye4evj/j+vX19JQNB1vCC8c/TzwH7TBvy0SA/N6jHpBbhgDIq+GxqxErAxOH3ED3knid3NmSzZ9TtI8pLl/Ga+3XCrij6lCKtQC5a37c3r6fFGzGtuqOjEldTlmREujzYnC+LoOc/82nP2C9Cs9LWSLmBPD3qgvRF9Ime6rHZR9GLrM03UJl/dtRHFjVecidNdYY38XGr7bvV7th4VNLrAUCIC+xt+6bG3hn+0z77UNHQFlQeGcwGWZKIJOHrBJBaNuSdF6W5lYqCykeagAvgZKAW6ATU6EdBQL5L0v1NgFyvmusfXuzS+zdKW/ZT847xQMy7x9A5+gBbSSO8FXXmLB+ZOgNHE2XD1QNTmUB+kr3K5BTerXkda5qWgR2yhaUB94+O27vPeIBuZked0MozSmO1gFyP2R0DpChOzim6isnQE8Hnvq38u6gY7KkUXcDyG/e32nkktgq2wLIWhg4cU0LgCyv3dEQAlYvB6wA7iLawl96xGNE74nojEWfcX+XdSh2lJGHHLeBzfvbuHE7f3M3OZypKiwQALkqbkN1D6KDLIsXHj0akNT2H7AFnFzHDzjUBC5wjQDZkaEKWKkIUJSt5vRxHowqW3QVsU93430uXME23/Jqe/PNV+2qi8+GsiCoByAPRGExEC+8CS9Zhd5bSZroTyulGqKDMXTDkr05tVjFy3Qupt/+O6oAbXSqi/ZIH8Xt4+e7XFPSJsY9iPiY+F91iK6FrmgYoHELkCtgypjFd/jBOtCXbngOcrjpf+zGczYbuyUeMF67A2TI7gQLhvdwI4R13yLOuALC7tZGRtBPnkD2v4r+4go2Rf/I4ZVnWaw22+ziUFyouh+Lf8noAiD/S8y6dB20/bMP7cXHj0UbjLdJkZ76FgXXfOU0dXBOSpImcS0BN49QBMsij9FBDSC5qKC9KsIhJ0t/Nsy2/s4N9tZbr9q1l55NaUtkb1ASgwC+gXi0zTQsTQLILRQdah0pQOYcqpHs2kYJ0PyXa7iqn10pUP1s0AxmU18g866XNlLykHXM0dDdaJtVIk7Zf40DUUq4UhGiKvjCIxaYu4QXNWvla97Usr36dBeBRrx2xjNmExaJFq+PTiIHSSohxhU3Whxwo6Cdu2bxGdpJ+LF53t3/ziXVRHSHrw3iE0VKuRbbfItbwHy1RwmvZc0CAZCXtTv+Fa63L9VuU994wDrnvwK2zrGG/p4qKNKXrqapDk/Tg04FeD3geG61JCBySgQPOsp+I1uZEpMDbNvv3wpIqUh8zuaSOj3tzZetlJ1PYPBN6I55rjRnDWqIpqGAp+paSHMsoNMx+C7dr35HwTa+kIwRlFO5zNXGHWajV92K99CFpHO+zf/kDYJvs/laSNr1+1ZugMpQEz8BuMao5qzuGNIe852Ka7FYq2253XWOllk4+xMSTd6BmlmAl94Jb/0JxHQGXpvAHkkiEBlcvBYl1ViGRGbnUC7j0bvfq4C9dhD+PWpb5WpBKwjqQHkRf+F+HjVue3YHy32Fu1R9HynRrKCj6wNr75hund0LLFlTR6IQkkIE5fX1/ay5abA1NQ4i6RFVi6u7Gl4BkMMc+KcsUCpmKRg/3Xq637ZZs35NGUvhmsAFpUWZmr6xNvhYvhKtPICt7mFLkmWRiFOrwbmkvip9AqXCgCGq+PP/eKnQT3YhYL3A0xORZ+y9Se8le0BTlExqBh8tU+pya/8RX+qatBiop586dXgPFp8fOkJfrsVUlMDx/zvYL+6/x159/TWUJE225oQ1bZMNNrT+A/q7Tty1FE1OKMr3jb50HXD5NJv96NPrAbyVLJVaQN/BzwgYqv1VEjAcYv3bxqFzHsf9aXW7Gy0YcVQj6o34z7zUhVznKpQ6aRT7B0vlpnKeLhQr81nsWOEq98vX//9c9hf97P7ubK9GuSzwpIvXJJgvCYotMZaaeD0gPgI9+co2sN+3v9Q9+WfGX23vDYBcbXfkGxqPa53kvBLRDP/cQ/i/HaIewI5OOjj3H+AAcTbe8YL5c21g//62wtjVeBi//jrACxcusOkff2DdXV02Zcrb9t47bxBg7MOrRh2BWkLFOOOMqy4JkMJXJwH3PJ5uXWOz9Rs02AYvN8wGDR1udQ0tVgDA+w8cYmPHjLGJZ59i06Z9aGXUJYLeOo4jJqM/5T0Ht9XbABJIBpB6uPIGY23sZmuSjdfKufqhxhgJYEOWV/jnf9KopXLWMrmPkcl9BiCmrS//jmUK0zh7BnDzIOmYe8eX+IO7Sn3aEbCzcC2mHBhqgdOCJEqIQCXf44Bgbc0Q+PeVoHyWZ2EdSCr8mui0PyERZxZp3wB85j8BYUCXceh87kBcS6WxQHTCL1yV3wt4yV+F5fHll/wAlTep3Y/fWfmdlN9t+fevOeYeN7al+RUA+Ru6u3po5vX+1Fprd7KmOqWNfTOvcrlgnak/WVfPKzy8XdRdmGfpdAfb8hLe0yg40QXW0NrHfNcWm4QHJnw8jocSU+5zneVJjshQYKd7XpMV00Ns6Ipr2IrjJvxTg8+Tj/zmGy/bO6+9Yl0dC6ANuuzjjz5gLRD3WzL1LgW7TGWV1/1+2Uas0kqm3soAwlgbstx+APSXL7KTh3P42388ax+8/Zr1UrCoY/YMS/V0I4GmND3nUWkNKddqCebVQrvIgQWPAUrfBSSJrjpJkfy2MfDYyymrD++fvwlI6usFcsrOI/BGSYpchroZ0CSZdIlzwF3PK9rcj8s2dzaBPbx3FUpq41j94J83OsrXeo5RlEhdqh00OTSUzQc40IuVqdMcW8GaGzejbsgoB27/3evdj/eFqpHeL0Jaj3Me4xYLMDpeP/qbO5YLfkaev/7p/ubP4YOKnl7ydFNEO+kPEreQhbnoYNG4vrCWuON9Pl5/vsro/c+L/1NA6zY1n589ig/4wSxKoKmEg/ndqiv8jAWTDrNL8WuZAeTpnQcz0aiV6LxB8X0+3dd9OR4PnjJWz8PRwtdAHtZhbJ0G8zsiWdoWu/eIdxRnyPsSzTxE8GFum/ffPziLz5v56Yutr/APx1PqOLFymzUm17Xm+k0pgLOK4yK/yqtUTuGxzOSZyVi2+CFbxr/BlXbiYWR4aCFUebo+D6hFffDcAxd5ItEDqKegFuCRXM1X840eZ/fQ+ydEdSoK6SIqADjgrlYbMHALGzRyI2sbNN492M8//YhNef1l68QbLQKMhb4U3/OAO1I4xdOU2Cfwc0IFJUQAkCg2BoyM2ditCb5RlEdg5wN2nmNVNqD0zgYVMn7s7f8t13jRqQeq1bSVMinXpCnJmJVwUcN39UWtp/7GSpuYjdqIaxBHTD3m3o98okjzCAUPNSD+LZ0y111whZOkImEYCvZ5rLK6RIZiQVimlpoZlXkju2i42mjwHvHajuMWT475U/OLyAX7rF7ADgLF6yhY7xQqfg/vrPwF5YUPgDobuHrT4oTq3Zyrqx1BjZCNbOa8a93JJNdz+mad2Clavvjdw7VfTPRyleicAiYCSD5TOZe4/gr37+KwGp6rfe1nZQnDVWa5S2zhD5r3Tj2z2Hc/FB9TcC25RCPpK6p+V3lWfHDW28wlzkT2dm2w3HX4+IN7v5usCVt+0LE2qN8WX+UxWWI+s0wAcir3Z5ufvoabvNjkjyZVxbWoTMxFkySKkrt/VyLgLpjEg6aaBwBrX6rsCsa000K+YyEPOYVzkoh0m5uabL0NtiMTraIjLduM3t1dNwhX+4AKYVoIYgIal8oFpxobAkyPt0FtO+EdDv1/TiBtERf0XQ/4TqWAOsiojV70MHmedTHvQj875UD0OwXBAFW9xzUplUeEl1p56FRas7FJFdCkmFA6XhSsW3TMCGxkB217o+MJ9+N4dvdd/z4JGrQxQi1RR/0Gld8UyDcPK9uglYAUPEWoYyRnKhLP9QOAXiQWgZ/jhTXW6LvuUdQ0VHYfv/KteLDqxfT5S9TLGYfvaLQatQZ5vQBULeeWN9y2PAG+bePWKGYgWmTcA46HWgENt4V21+nP5W3jx+BBgmuOevxl52VtwPIoSBA3l1gwVB3OC9Y8uLpjOK9fHbi1oPAbbnhDvRJlVIkOnhYwV8J2jjmg+eA7buvLH8G9vDPrjicNt7un+qWOHd1Tp8jQF/PJLR6R/lup2uqb0tjiO6C4zzkduG+N5Z+BilKlcq2iMPyzsWj+OBT241PyTBFPIio/7cbgwHlxP8SfYrEXem92BK5TuDtfpDKpzKWIlvCAXDmvX1x8WVd/fp3b8/lxa6nb3EaPOm6JAdevMtBlApA7Uk/bZ12/+HxV18pbAWQ3ab13UNGIOlDQ4+FAK3ogFm3jIi9TnpEeCMfHKUpPpTAc8AyF2TPsJtOdVD3b9ixbfoX1rTf3G+vI3e6ae2b7tOqrDoS/Xe6R5kEr8iUdrDysHlJnZ05ts9Un/NDGjNsQkOy36N4Wy502o+vH3huLJq6TUumYAgBxbtFkrhSvcSgnlrQCzM4l8aDnxqAHQj9w7qlPZm3tPZUSTQfkaHXygF+xSeSw6AF2QOCPk+4oUmKzz5pjBaN0sSt7OXhUzNairZKUB/IOPULwpWQK/ee8YA3Af3enqYxJz6O7T5GN+P2IgcfCM2/1hXmegwM+77hdnWyuni/yRyJPPEY/O/THK4of5XwEjGKAgwNiZzf/veIZfg7E3hbOpg7M+C7AxEPLLszbgOW4yXX17ErUGxDHHN2wT0qR1E+X6HXY7iBKG0xlrLE5y5FkU9VRjgCZRawX2kOvhBJoWEyc4yqvssI0uC297OUTXxYBv4DSzd/o/mkeyoYCZ35Xl8y55BxvOQ+IGlNSbau0kKAi0fxbREtEi7O/XL9AuO8srnEWEu028pShSzhZ4+evCv/rkmME/YsQ2V9/Lfp0qXHkhDg1SwS8/tz++XH3nIXJVQ/kFz08N+2UM22fX7K/vpa3Ew5voDKf5gdp6rmhtu7qN3xhDEvbP5YdQO6+OwJBv/q6XVE0ARct7dGEWeQ1R3e74iW7Ce4mv54NASC/kezKAbMHk89BWt5Lybbc/BGb23s44LbAlXOUrEoPgppxOg/EjcFPYF+ohomJ5yVqI9NbtnnTKT85aidb/1s+jbZQmmezeo6IzqP3+u21DrBoA7CYZ+nbLVU8UH/dlet3HpF7tBVOEcCW7IPH+2zCLjyELQAyAC0O2X3GpflGH648Bc6D4WOUoeyZW6QeQ4omn+iJqUehbiGqrikFg+s9BxfiFzoBdATqWtSia6/Y2C+A/lwqYKSXSytG21wfX9XGrXTxF57BTjjpK888gA09gAyQ1AFsokTaUI5tsK+OJXqKQUrX6zpU6/wRGLj76c/ngbkyrugUEWAnROU4r7oEzZR2gFwAbFHrWaq7xO6I38MV82skgNAltQIyjptL2qfP9NrAUUUbsqaIa0dSu4VOC/PfXynY3/9etLVHJ62FHUM/siCbKKxUQ0ahitrrS/FNt933a4gHfPdzxNg6Ks0Dopsf0DGN9aLmokXXLWkCZNXh0L0gA5FFRONWvZFKwKxI15VuCv+PXpPZAMD+5bm8rf9tsjCpsgf7zfxWmrloi8XCcFqrdJ1REakKjeEHKjNp8ACyajz30HFb0kLtquSYkPY+ZWrB/kEfwi52ma9+kLdehq3rc7QK458wOmHXnkU8gyBrIZdgR9piG611xqEYEQAAIABJREFUx9KGwV+4nmUCkNvxkBd0/5wJ6Nv0LFrNK0ATOUN+Tntw875JBRw+t5nDisrvF+PBnD+iBzr6Emqn5sVt7bWutw8/ONoGrQq4MamUcFCqtP7R9lJuUdSDzQFqBOpyc1XXoMjWNgsGZLrqbcttJuO1LLDZvcd7j4IJrpq88qBc9TU3iAhAhcMCXAeC/E/AGXkkfjWKLhOPyT0E0VZ2GpXNVt8Of44CPAXAS7redA+ADTjFoSL0JdpBKcaulxxF2ktc18f/6LXXn85bA39XvfqVN4Au2IFtuh5maXP5UIHFo8BD572hyFbOI468Urcg+rF54PEcqbw0eVrlfAN1gu/m95+rQmbP/Nhuvuhoaj/AF3OdKvcpR3TLY7gGqAu3M9A1khCicmwCBdUv9prmyi7Hj0WLYAGQ7YUJUluoaVMKtv4mSRs0HDkWHIiAsCZPadH+dJEW/cT96e4o2f5ndLtKcWpgct+lTdY0KFqIsMu0+7ptxU1pTbUi10Bx5iKeepFVPJdJ2NPP99ntT0gV4e+7XnWubyBFmADWAUQg9/tOvY0HzNWNux7ArxPtwN9FL1W6cjuAZg7lKReawDtIJpUxKUjzwC17q3FsHMNowYdqt1Mv7bE3pxXdPayFY5fdT9wnYTvQvVvz7tbr03bA/gQZOW+CMctJiMUE9H6Oebcmern7VXl2/DkdIJMwJKpBNaZf+c+sncExXQ9CvPdy5E0vel78gf24+aUW4bXHxO3689VrUPOmjh1Fk228zl2Ln3mp+3mZAOSOtCiLu51HIO4up6fSAVYFlPz08lKgaKoJF1xQIppf0c+Vmeh/H3mMiybk55MySwnI4oJ+Vmgfad3T/2Ir01q+fpjv06YHmZ229REgU8lGV4hGSi+3XRX35zPexEO6oBZbPiUrjB45kW4UA21+aqL3pvG4BXLyQpQYkQdlKpIhx3vrGt016cvTLxWKwfG/fOmxbSKVWGPQfx0fZm3IigThSA3W4qHaCp0LCvbAvTkbitc5llTmocNQDpBCnaTuhBVqrQgQvPZCt816RenPAALXsuL6APL2uh6u2VTYQu2O4lA66jztF0bnkTq707eD+6LEjrqGog2llObcjwr2GkXjt9geMET+4Px46JE1x9z9BdXFB1Net3tvOAu5mdQa4pCJxm8Vs5HrVhZODwoxDYqn3PWsozLR7A/LtvAzvvpK9je81Cmz8jaThUfKh0pRIGVG33pWiw1entgAB9b9bqinFCfi6yJev+ZST2fR9j+zm52Lg377xSUt1M6QXVmIsgmbene3rQp1UteKtK5ZAT15yAU82YRdfmO3vQIoLr6QL0qtXmxOubUTQ4kX1/xTV5OBBENP2bvOxlNnOU4moWyTSydQqhDYZCHy7JCfy240XL8WJWVJ9rHzOvnyLpsBLaB7rDrQ2uU9ObnBWkiY0WJ1yPE9dv2kFqsl7TyuDimaRyVqUEce8ufPQWVl92NzCS8OUOGQMaAWwxz39aEn0nbLo9J8l22zNRL28jssSi4aGjk/0WOn+eh7EZbtzgvqbOVVtLOiZCvXluocZJuud/NSB8KLX9CyAch4yPMFyMw6t31K5a2TTsLeS/LbKPFcrmMEwJfrwysEOHqQMmXY3jkuswLeUYDHeZWa6PLMpBhg1a/D09hoR2oklGvpNFGie8T29uojD9A1o8ZWpbi5CgO7c+mhwEtpX8A2jYcDSSuVwvTA4UU5D7TismvnLlAGxBnH2BXOobdcDQHKUz1YA8Y5vDCXAFaoQYKV42HzWXGiUCrbQ13P/Fm0sp9bsKdfy9inbBFdMXYQ+74Lm+FFGbO6PPNfMQ1XyNa0YSDbch4YecgdC4p2/lUpm862U1vcDUbH7fTjG+mqAcizLS8yhidv7rYE2+AmBfWo2DZ6K0PZ4D3kMuoV1SFWl+Y0gdAprxfsqntT1sm49PBq+ZHHrUXit9QFVvflufMK9rPbc3bm0fSawyuUl6z7MHLAETZo4HcXzeG3Xv+TPXb7RVAWgDH3hHiqbXGMB0TPFfs+enFp3fCsc9zfVDpvV96Usdem5uyh6xvse4dzkdGuqMJlue03v73t1BZbnkWoFv7VqQXyKUp3wiFje3l+XR0FO/Bsyo0yj+SQ33t5kzVQGEmqgEJfwt6/q8vW2JvPAYiJNqVD83sWjwLj2O+ULsvK86xcDbddypMDtk3aawD1397zbrMDYt6lIKLDWFEFfLuPczWRBl6G2y1ka6zrk7LNpJi+5sOGB3sv1S+5zE8CkeLx5QwoEP3jszsszW7AzXnmi2ieF+9v5jmgCwoL5Mnnp+yCwxoJwEohwQ5Hq7seHtfktgK+EXdc8UPcLsv/TYG4WlLf5VBks0W7474+u++5jA2gX+ITt3FPuR/asc4lzb0Lbv6SW8nW7FBmu9896T4893MSjbCbdhOpnritNeYOl8iyNL+WEUB+Bg/5LseJagL28UD+/T/Mzvp5jwvkuh09q7I8okFMmCHUK+hH3YMGBLJSCrgHUdtE952sWdVHYPuovnGq9dvSLFCN2Yj18S6gDlT+MdUOwMxbx+a98gfX/WICwYkcqoqiQFRyKDi0/3w5Yz+5P01px5jtvHG9bbBuwkbz8EsK5nhIF5jhM6I6UjTDHHsVgNuDV3e6NRLnU9fjPI021atOD3iOTKxuzvvwL/M2h0l+Gh00tjo47caslvPOa+Jp0cPswj38+9rjm22V1QBkeYAeki3XnrG2UQCyxsoutR3p1qSrem0mnq0+ue+WtbbbrkqZhsooAMh0kX7o2pQ1gVD98NZaGP/obQjCracu0IwvBhigIdGxtGA8/lifPfBXv1V3z7kWKVB5jRVjduMlTfwcs/aFZgdP7LH7rqCdEvdDWVwCyX71W9uKI45Z9Ey++cqL9uufX+GCetSzt22OV6U5rmOROsGrRVSVTouDa0qKh3zZ9X321vS8PXVHox1+Zp+9+3GFha34lB5sLjmk0SasmUS1IJ22uOQCnp/iBrI9YNJetP3O6nY4NBxv8rpzm0nL1pzi79yzt+/osXXgsrUVqu3XIJx28YMin/0pHagHMt923qaWwJ8WHe6RAnzcoBMuSNsM1DuVgvdSTzhn0g/PDtqmxvbYnay2Bk8n9VGw6YOH+8BLuPT+cVtjNx8fcJQFd7ymXincWpDw6gnA7ssiosXVt60q23Ybxm3SRAAZCkwL39W3pm3frRPIGtFJ41m7ACwLfhw7u8NWQHgRGC9Cab+IsKhKzy16LgMgX3h1r730dsG22yRh556k5ZP76dYbVczTMX2jAe3w1HVGu6i2QWqRpR6MNexE+tmm6962NGOxu7ZlBJC9h1zEQ9YD2Ydr8MafYzbpl8iRnNqnEs33NIVmfoXL8lXNfOjL7/yjLVbFFXD77pi9eA+6ZGo6KHCnzsq9eJVTn+i1Bs45Fk9x0GYSZmnbrkQCeQVFu+S6jE3t1CRn2yg6BU9F/twalJu86Dh5Jz66r6BZnrZH60y4w9VV+Mv9p9uA0XigWzJZoQy0NRXQ91FEvQcvY6djqdXAgvE8HsYhp2TsE7amleuJHqXowS7bKXs02lYArPg+XboWnpmvp230ptRf0zaYB1iAfOrFvQbGO3rhuN3qbautyWYD+ESVlPpq7JGf9lgzbnkrJS3bAKQJu9KpA+pB0X+Vh3MLkXrUdeNtX9trU/HWRaGo2afOIbuecECt7bq9dhFetbLbsT122+lN1o++dPKQZeoiC9B64x9c9GC+8bcX7Jl7rkbyVrIV1zJbfZsKark9u1vQHIcKIKsYkuyfIop/4VVp+3B+wX6Nt/baW1zTRbjrFffTuZbirOiIvVG97btnrTVTstPXNi5KKOEULvL42xcW7ICzu9z82JDazacejV4YkC2zY8l2m/3jrm5bZy9si+vbAM9QUgdqRqW5WMRD9HWQ/ULvuNlILbP7CZ2WluPOywXf3N+0iPqF4pErWsggxGtn4c6k4tYzk8p0L7L48vmVt4FSGuUv39EWSkEmwKaWU1nogylvsfO4Bd02b8iRIMQ6bpMvrrdVVyJuECkefvbLtG01Lm5jJgDI2l1op8Z7E8gunYrEXYUQpILOiyE0Y6iBs1Y965IoIhJoDjy5y+Z2lezo3Wpt3x+xMPFx7Va8ysZz7i5uIG5cS0hUha+Up1xrDz0R+59gw5fbLADy0mCBzvQzNq/zLreFd4DYl7f3XjE7+54ePEcfyY+yM/0EifaQ7plc7Ge9z22xFXDjIXHrO29QE8/nf97mGoAKdPq6AZ55Zu88iQyM2g+bHE4iySABDQDK+dWl+CO2o4de1W2DSIZQC580XKbAScdr5IF/8OoWMujkQvpATK6bbK/1HrJZ016zVx6ZhKcGT7p53JpWAJDxRhSMykYe8i4n9PBAlO13v2iy1/5RtIlXfR51/+L9LNsqwxN25alNeIACHAEf14cL38j2ugLICwHkYy/otbSgAEOdsk+9ffvbolc8x12gC8ivr6HDM8GqfvDKrXhGE/agDdNIl6Yh6YF70F1LJB7K4y7qsXay22RLbZcFyHoYn6EzdQPpehUqaU94zIl70YF5fUpdak+ttA/svuaYn+Nwyg01++vvf2UvPX6LNUKTfEdUxSKs8IAsr1hgIg/ZaYcjQD6BIvoZHvoH6TCdAzR2OJR/K+D4BQOVbTm8zRuwT9tg6lIofiqemsL2JQoGid5q/yxvB55Lyyo+t/cWSdt9dxXT94CcZrfy1n09tsZO8Md4qA2DpPSo0AhRFM+h5udbfQ0gxcK6y7Hdbp45mbqmQRQA1vm/u07SJh7e6MqgCpxTHXTGfjFD41hqVXCoCVAkSvDRP5yrge0SbJF0P1XjefK9afvNX0mv5vhZ8ccA8n/c2+zeqx2eii39+jd99t57BZt4BMlPOBpSWoixqCnhTTgcXhyI/b8rHrn+rsJLqputc6ZSRfveYV3uWh67rtGGDONecD1Z7nuKFlkVRYkSdbSgSGbnpPCKqXDtPew4N1333qUBiv7Ha1hGPORnFnnI8jbSAPKstwiSrZexv7wesz/9jQDS+377pknlZL0OfCvbfB8ckxcjPk8gUtlma2KNHBy3e69tcQClbWwfBdh7ZxbtzZf62eD8x7bpxBbqIgBwHCPTV4BWiNsDD2bsV/+gYphkWnxOXoTGpnnej8yxe6+Ei3T6S7TJAEauM24bb/SwTXv99/bWM5e75IcVt4XeGMpx8YCclIhoT3c7HjKA3A/51JOToRXg4HY5stfaUQ5438xHsb1mlLKSnGPypCZrpRyl2tbrWaihrrFa0ssL1PUswJs97Lxe1gafDHLuIfW2/gYAOGNQsLGQqrFfXdNpLTw9AuR+zQTfDkAV0J9jCJCRnMmblDfW1U7n5fN6LOvkH95D1oM5mO3+47dSJ4L3yU768yXX9EIjxexY6B61N/LZazFbZdRPkXbhAvJ69pFbbfqUx23NbUvWn6Dj4oDs5ISVYkZIzooVQIYL35c2U23QPvffQEo47/v5wxm787H8fwFkaClA5ZYzm23wcG3dfWCvrl5cug+ozp+Ttx9fQLABmx6P97fV1ticnYN2NSn40dce7rE1t4ODhvJoGKguI5X4gKcgKoqdRdlujHFhd8b2OhkPNgLhRVSFZicX+ItzG23YCti/FnoJnrp7FqVCnxc1Re1n4hFj6PwkmZu8Y51NPKyCmtqlZFGYXH9n2l5E46u/yWMePdzs9qvafMxBHjLXNvWDrF12e5/dMomdH/dTFIzsKQ69orHwemv/kLg9pL7L5nyX5jmBHUQ/dbAb3Pm4Trpxx+ypyU30ZRS15yvz/eUxdlQEPDXXm6kiKJpDjQ30LDklD3OsX8PuttoqP/ofwWxpeMOyAch4yPM773SeQB5+KpMp2AJKKWToAbfG+to+4akhM5JW8g8v5eyBF4vWkwIgK4kX2lLJc+TzftvqI90KEmpWr7ICoHaJPAw8YFQJfYBnz8yCvfn3Faxfz5u2+SnN4Egy4q8JZEwv27FXQKbiUevzUjj0RYCsyTxiUMwmX9TspE56OMQPF7pqbaON7rd//Mcj9tFLt8Ft8yDthHdBKyHVRpC3loWP6QGQdz+p11rI1Pr1LXjmeEb/+XLBTr0Wzybi6BZDLbfw/OKcFhsCV6iFQYBTQyF4gY+8G3lF8+cU7OBzepzHI0C+/PgGW328yHX+zXnzAPITP6WrBgHJAfCrrRSXX4/aDT4VWR580qkbskjJ2ueW7cDzux2nrYVPFJIWwg3XiNtVZwOOka5a53nm9zQffTJn91zU5NOb8Up1r2qLo238qle45+8X152M1d+xdX7g1RHRhiaiKzx/KlAWZaGU6AL3v5fg4y7Hd9tyA2P2IIBcAETScJbfPyz1fwGyFuCbTmykfgd1n6PEklpkZeo8rV3JnJl5O/SibgdGp+1dSxcUFCHSO3O9Cz+M2Ru/SdkaW7GTGQQPPaAWEI2AWBpn9wV1wfVTmRK7C8zi9vKrPXb2TZXaEZ/DjK4N5Zw9+lOq6LFB0Pa+a16NffZy1rKzSVHnvCPoizpwVefDRnSFAppOyuPoJe3EDjujyzqVVY8t1Udwt+8m7JgDsL2ms0sVF4drdiByvrsvaGbcke2hpGKgqMbh4xF+QfFW90DszstXbaMWAQXL4zYdrv4AOOsRg2P2wLUM3M0tAXLcttq3w+mPnVPM5zekp+Hem9RSkIkdCVWaigR29trr4aUBa7/UNSwjgPwbB8jyQDUR+jJ5a//Q7IJ7UnbPDQQyUAq4YAITztdPICDHv2fi5b6EIuCVt4o2B89OnpzjI+UZStMsD5KHafUxCbSwjUzmJKJ7gkZQFplZiN1fX9nq57xi35vUxkMvj5O/9RZsBuc+/cZey7nkBxfvYUw+gKNpPnZEwm7AC1JkX3/PI5+ynjZbf8M77M9PTra5rz3s2tuPhZssI05V5w4npQPdeqlWucep3XRtjtmjN1LYnei60qW/c0Cv80qcfGwxjlwPwVE71tsPdvB963wAE7abh8lt8QHc+bPhSc8RL62sq7LdemaTjST4qAewAA1RIGX8yes6rD8gKw9ZDUrXOVLPJp4QFcS0YGh8GRadD6cU7WSuXdesJ9pH+ct2zen1ts6a2kX4LEbdh+dfytjkh2lAekajDRwGxwgguz1stsXWWv1Ox7fedtleVkp12uYHiX/8Lx6yAwrAhD8k5CGLExcgQ5vsdnKPDcVDfvBGAFnJIQDR8T9BmzvVSw4rcCP58qHb1drO2EiZZwLeJAuW5+0TNvOTrB15OeiFTc8/pM7W3VDUDwskdpnyZ+bNuxlbeS2qw42oobB/Em+xYLM+8en2Mz6SsiRuP9w/boPYxjt1DTY/7fIOe3Wqp3ScA8BwtI2X9vhW6JNhK6DYQB6YlyRxdsLmPcNiKakbY11zP0kNPTg6UkQUAF1dVJNZO7s+6IM9Tu521IvsrEXyvquabMgQUTo+CGfxgjv2Hid22h2TGmwAtJYWQ5esQ0A8wd9dnMUR4D5M7KMwFdoChQUerxYmLcRvTcnZcZf22nYEeSedDCDj+Tr6BOXEW3/otQEAddvAOJ6z1CDw3VL8sIDomCuOONtam9f7UmC2NLxpmQDkzvSzNrfzDufdyUPOET2T93LqrT32+O0CZG2p5Qb7CLJ/VZIq+O5WczxFtl5/fbVgz0Nx9AK8vWRbSS63wapxu+IcLxnKojhIIysqzh9gH366qi145Rn74YV4H3iK8qilPZ4/A2E+ga3eqK5EkoepjwdD4K4HXh63ALlGTTQZUoGgWSK7vK2z7rX27C8usZ5pf0BKh952P/4OP1sUIDsPmXGRNbbXGQTYmNyP3QT3inckL/tJJEdX3e1LMvqXv1B5xN/G2z39iEY8cg84es6SSYmzBMhsy/G+DsBD9sGsst3D9QwCIPUASwstOuU3NwDIZKkNQHbWHy9nwgG+o0hZml1HFfi08d8+l7PJT3vlh3a78pC1QDxyfTNA7puGOq00X7NnZu34y/vswkPrbfW1fMF3J4flWtdZ9T6OUWtXTtzZGiiktPXR2ub6y/O0ReQhOkDGfmiZna6ahbR7Ydn2RxnRhmzvoZtEWXBegoWfzMrYwWfJS67YxntuW06osRMPaXD8trbQSiEWGGmR+Xhazk68GsqCk15+fJ2tOt4Xohcg//YJFvO/ZtmqK50ZWylIF4GrA3Y87k23StjKq7FdlxbcLYJlO5TFby4aadlI1yIw1n1q4jiT8VgbWGyV1twxZzHvWCohtvyrqHxKJU1dOyIHyNiNWITm6uyZOTuCAK2uy3HUnO/hG1qoOYwN5BsTRFPHFy3E+53aYUehptlic+nAZXv+zrxPEk1wNl5sHnkhXrQjUWdvvFstDFrA//b3rJ1OUsilx9TZtzZmR1pTwFtnsU5rEsg1jo5UcbadoNTbaqXhpwLIiNqXkdcyAcgdAPJ8ALniIWeQ77R/jGd4TY/9lsBXiTKTyoaTLlI8qqsroCivm9v67j0XB9K4rL5rBdtF5ENPvpizjccja1sX4MnVOS8w3UkabWptS9l69se7rrS9L212XKoojzSA3DGvbMddlrI+VWLjP2WBKTNMHowSE8ZRf+HGC9BgKu2YzwiQ68ur24Q1LrBHbjjVinPfoOpXzFY7EKCjXKZ/2DgGubypBTHb66wuJHlxe+RGaAgFszT5yS7Z7mB5yR4AKxyya0PPw37/5ZS8dEoC0RbykAV9kYcMT7oIkHnAHryy2VrcNhYPiKSQ9NyY/e6ODkO6DP9tNowFauUdxGFKkkcyBAuCgFd1Pu58oM+e/XvOeX8VQG5gG//E5FYfWI228gJkLZx7n9Jr6wNYpx+pynpeCSKqYKWhp9qAARvbVSfvhAY5a9tEAb3FgcIHmTQOvC5WEwUW86DygrklO/xC2jsh0Xv0Zu6NUtmzolbytvsx3daBOsJxr6JkGGQrIHw3lFQr9TSFdaIxNC+Uhj0VD/iUGxCVY8Nbzqq34Sv6jiF5wPexBwr2zps57Ouytt2Xq3Snqm/8sP6G8gxjtsKqdJmOPEqpsveb2E19Yy1YX+T8j4Ci2nYrCv3jHauG8dwPEjb/uR5Hp2lRF3fchPzSO6uR18pgE6wI8nx17X9/PW8XToYH5r5rFziQWMPdV/K/SAxZhPvWtcnGB5zZZd/dIG4/3ovdX3Q8pVgnCx6QPWes7z4dXi66e2qkQW7RdoXFGifjiaczdv3DabttUqONHoudtcPA3qJsHMvtkqG8eqTiEEldp53fSsudhmqHtM9l5LVsAHLqt6gsbvMJFqBilge9/ZO4HXV1t11yYp2ts04DmVNkAxFwy/Fs1SgJQKCsUov6Hj2A/mGvCOA037xmR8khSu/MZ5NIkOAjkZ61FDe11uE72C/PP9r2RlurdkcKcGQBbBVOOe7ilKVdhSF5XGznoUOc8J/frEHK6DXnkDIqQBaIpBJUUFvPVlv9DPvl5UdZonOak5at/mO2ocCRNLHOQ8YFSqHf3f9c6v8y7sdvqndyJ4FNnEDdxTek7bmXv1ggRsoBnXfyaU02ehVqIbsUYc8j6yGUBzx/bt72n4SHjMRKD95DPyUhoVUyKsAROmUejUBffbzHBshDxnsbtnrcRn1XqdwAsorpKKDHOTIkhVx8TcregpPWgTyHXLY9vlNjh+3b5I6tLbwHa9mT4NupXSgdYnYtO5AEOwZf66JEptrONmrEQQDyD9Ag523LI1T3IVJZRE91JKBydozLQ3agBGUwHdXIFT2uANKjtwiQlZpLGVXu56+eS9n1v/T8re575Z7cdz7berTZXomitHFRFjF7562MnX6zPE5A+8J6G0SSjYAmx07p0Xvz9v57FPrRHJFH7MDcKwlWWR2VzArqrB23EVBe9er3p8QNBMq7EpR1HG1lM8NYyClywdcWtvYxuPqFswDjN7DpBymXTJFk9zJeCSiOtnESBVdKVMFZKUycZp25/7s/ZO36h/q8eoPpe8p+Sdv8WyrvCaWm87ksHd/38KCz22057ueVBDXjrCpuR8StS2ZVvW5RaC/ac3k316la1EhWAWkBMvf9yht67T/ezNtDVzBvUK24ekdF7cZ0jX5XWkmZdwdTVTsH+AkbNfhk69+66TICx1rX//HiYrd96bzuDgB5ftftizzkHNKB9ulxO+zyHjtgV3SRuwBqgJZ44XZSaDUp42zhFCUWN6eHz3F0epic96xuxWxbnQOmVT2SMMlL5UFMfUa3iLqtbPi4feyaY3e3/QhKFagS43gzOkt0sWU+5ZKUfYa34YJ6TFABsraU+sWWayfsnIlEx/SQKCUaQG6t2YDt8Kl254WHWF3vdBvQDw/5IAAZD1lyOr0vQ6RRHPL+53W5h1SURV0jwaeMB5sU3PmOLnBVCcfoWrzW+Mz9GmwbvK8aHmABcoLrcxwxx10wP2/7ntXrMhFV2P3+a5qcbllKgzzXO+3PefvwpZQNhD/uj7M1aiPSq0k0UCCzJA8ZkFX7IHVx3g19bR3BSvlDTj4IIF90bANJMUoe0YMaVX5zXnXRzmTRnDazZA/hlTteUltnVXTq62/rrHGn/XTiTpTezNnaO3HuERVA9gun0+BqZ6OylwJkFXdip/D+lLyddVMaKkEesjhk7AcgC+yzlOz7/hG4yNFCmZX2lvt+7QnQJhNUB1utjnT/fWGnV19N2wUUVdJCqiy9lgEsGspOYzv+81v7bPYs0uPlGfOVFPXA1yhqMI9ZjSsBoVtZbIayI6pVlX7u94fTU3bSlfACskX0ZOp+bLd+wo7YF8VDk9+hTX8rafN/1+Uy+5QV3oJSYvS2EX+s0XAex+4CxlJZONkh9jybYPKUT/3cFSBfd1q9rbhSpQ+gSsKqfohXC51xRad9wPgfu44a4eqbKAkmoJ7oE6BXMvZ05b5mtGwmmitOgEANagXIcn5OQDKpmtiXntToy64M5nlcAAAgAElEQVTqmdHCqlgBP6rQ/6cU9Z9PnKaR368yjhRwFnwNcvmBR9rg/t9ZOoHpv7mqZQKQO1PPwSFP9h4dKJCDGxAgH35Ft608LG63sHLntYXi793UbchARUz56yDbfp9d7aOpT1myhaBNvA8vRFIcHiSBsyu0Q3EWV4PCA6nbgqPWSC9kyz5kXxs+5gd24SHb277wwaoLKQ9Z5+7pIAD004xNI8CjVwWQHWXBv49hkdh1FwlJvYcqFUNb8ls2bvwJNvm8H1tj6lMbiBJjtQPxemJKuoiCekz+XrjHAy5Q0Abv74Z65EQAMmDjstVQB5yIfO31aX4Bcfp+vrSt3Ghs0i4iYJSEc/bbcm0lVXBHgJwjG42iOgCYVBR3XNUI/+k95DxZVG8/n7E5r/eRdeY95NX3IUAjyVtEWQjU5Zl288DtQoJAq2RUvHx1uzJp1zzwAiR5yAoqOVsKkEs26doeex+P9vzD2MkItAEFVX4rUNtg/Qn32zUTd6WwUN5GrEalsi080H9eWEfetjxK1XHQgqtEmjzabFJ1b08TGIU//ZnUBdhZlIW20PCbp+M9v0KtBYGWbKPA3pHb1NnOJNHUgoCVXZPG+ue/pu3yX6ZcUaB7rmywRoBEnnO2p8ZuIDtNNbMrgCxg10I6fi1VhhOHTDMnZGqDRyhTUpdNxuOzZCc+DaXjbk20jcdOd1Fkp/9QvF3G1z6v1qb+AXvNQK3CrkCAvPLWVLjD43Y3tNIPkAtQV3C5zQ6QmR9HnNtrCzo9RaCj34+80hUBUolUbkiSee04f3Zcjz/da/f8NutStFu4n7Kl0qqtJ881UfnN8xZ+8fMzynvlDCiJI6CfBcjHA8ijaPTxg82SrobFLAKaktt9OqdoC0n60JBVCE+H3hq669AD0aNTIkCHHty2jw0fvFsA5KXJAh3p52xex22RMkKBnZx1fJqwwy9HrsRcfJrAXrmoB1aVsIroiBH0/yFmx0x63JlBxblzuV5797VHrY8mjj3pj61e6h22iXG4Vs87C+RURQxOFUBed/y51IhY0yYd9F3bB5VAXHn9eGKOViDod/0tWXt5umpx+udHAn1JzPSLS8nS22gjSbykYgBESLwY2vR9W2ncQehCD7KG9ExbbnjMxu0bURYkISjbKpcF7OFHD7oEV5RZ/si1ddQ6kIfME+tKYOZt/oKc7XWiOE8fvHOgyF51SL+43YXUrpHAldsJqMqagjIErhZ8lvMeMgC28iDolJ/IUxS/jb0Anjee6bOF7/bZUORu/dETr3WYJ1pLBPTEI/u6D6RzE8yURKxOqc2SEXLuUXCeN56n+hX+elUb9/+wdx2AUVVLdNIbqfSi9CIIqAiKBdQvithQQBFBOggoTUGagNiQXqWodAUrqFixoYiCCKL03jvpfZPsP+e+3SWhBiHrJsz6+Uqy+9595949d+7MmRkGlZjmSz/mO/Pj5au/bNKusZ88+hACQqZ6HFOPkR6MgvVTBrSTEBByEViINR5i5pvzrG+RA3cXJyEbLTTm8k/4UUe+k2IkZB/BQjZBUWDEDZXPHR2TJo9BB2z87Q4tMPXIi8aEgbyYyGCdjLJw7P7uh0SZ/AlSzfFMs0bDAoTrgfdJjfWVUSOhfsDn6TumLpxSv0pVkGqPVHB/1Ofgxl60DMtuWgE9Et5b78fLZ8utjdoZ+GwISWDvDgjywj9PEvzlc5DjliSEiREqZnU7XJe6b+NaM0FMK5jHZ/fFhkzpH+MXiZD2dURWYTICjvQ733Gdr3RrCzkfL4JnscOKZV0WwkY53I6t6cY/PnNQsJRGtTpzYmKdlASkj6NDjVUEiEuN7imeFC2XkheMD6ZqE/9UrMkO/RPkEJJknJmGBLoM5r0UNph76/pIbQRNf1huk7e+tEm98t7Srwc0+NAqM94XEdRYypXuXJDo6LzPcmVYyMnLULhkxikLGcwXu99HOuELk4oj6aLxhaQYdKIm8IHjewoqeB3aDisluB1SY4/jqJ8mmzdtQK+0A+CKDNMaqAj0v30H9JLY2K1y6PAaCQkHGaPNTWoiAoTY9R9tORVf3nAZ0uEeefQZWKrFaFGyIhsIOR7R/YUZsuSvVONHpYVMXbPJ/sP/JgxAmUmkrNJiY1WwdKTGXlWkA4rdN5YpA9tIoZTDUupqyN5aguwcFjItTbpDYiHV64pCQCx28/7oAAkrahEy02atkpkZ0h2KiY27Ebiju8JxT1qBC18OxSYCfzODTqa8I+sKeMtxZKO1RkUzdB+S6si+GzkUvlS6U+iCQVW7tZ8nS9yOFNQAQTsmWIA1QcimqJAf08VpnWHDwQNu2WSXQW/C32o4g1lhdrnvZpDCU0H4O5UA+AbSXYR701/Jgv+H9qZJr4lJOO4Ds0lhxsdtKTGQgOJ3n3w8cbGpwRxVGBl8LThmx4HFIcWidM8b0j/KqFhT14aapWv+TJfXZiEbERvMJ/Qh4z0GI7ozSTLA6Knn42UfNjdjp2JY4BdZgA0rgskddIMyBRrz+cnSRJn7dZqUQUGhSa8FGdlWBgKdzEAbixMY+Y01NkogaaUImp2EY+MLRkDWH7VDKO8qCflgCNQlrHtMTnv6xViQl2WV8+9cG6N7wq2Amsk+yBBMS/KTnxfhlHYkXqBmM4QchgYzle+3xmn8xw5C5n/7QmpnNjfgFRODWMAA4G/02l7CIGEjJLKwVoUpssEqg0aKaW16B/ZlSU+cFh6GC6pTB8wlf07VD0tCZ1h+bsPIJuB3ykL2Ad7eIGWSczI0/12HxKO+iV3uQnZnlatRkhZrm24RGkBWkFmk27Ak2Q+8K+DEMPoF1AOBAcOLh/jWk8rlXlBCLkgIxCZ/B0Kebu3uWFE8tsYiKNLxVUSzQcBTBwZLjRrwdcKSswq1QJ4Wa5Nx8LdxAZKA/fFFZUo/4n0SyMpu8P+9/NYSRMcZoWYhrHQUrYlBgfEo0+Le+RrY4V5pCn1q+NX8wluEQF/qsqWZ8vZPVhqqlWhipRFzZU+G9vPaalZwKCMF2mZ4TK6pMBxkUF3GPtdSIjNOSJly1CHDDSLBpm4xFSLU2B5DlbCeU0HIuNa8l/1RHAbqAljZJA9jP0HOtn5jqvR+Hf3h8CzUVltaV7v0ax4kd9+DrDj8wtQhJiEzGw0uizYQ9vNYWaeyt4zoD80dtcVM1wYh//ZBgqQfQXlOuCsioO2t1YEZerg4qiSZmg8kZATofoHlN+GTZFf1Mmq/pw8OkhLQ6Ao6QhgjC4Dz+G5qMWNscXDrdH4VhXBAKIvGwoLHUdZ0WAHVp8eAnJD+HopjdiEU2anzlOEGhwfJqvJmavKBTVmcyFjIwP93JFKMnJeGBqSwkOGyyCAho1oaXTAkGT73L6tSZPg09CWkNIxBTjDrW1gnpctB5UAlCrW4mM/ZyMT75Kd0qVzMW8bh5OAN7HjcjznoJ1MnI4WdawefLV0KigZUTguDDzWIeluwNEt6lkYRdmapMSicic26ee84K0GDezP+VEYdj5GIJ5iCRRjb5wsR4MWJhdkUTkKu3hQdWnBtq9uIM7iGf4No/UDIZh0Bv107bNJztBUEZBCtXxs/qVrBz2wSXAPOYJIp04q/UCvdDWnu1E4sQRYle0HasM4474GpIGRzK8tFYsZLHzI3QKg6KLfkf7OQV1Bwism0ZJCOcQdTbtU8n+VL5p9WvRNx8rRkkzNhGATyRIlf+9mvkRqVcjYlKEjcdPqzXCEW8vdyJHqaWegmQwiR7NgDvtJ2RJw56lcujYLcI0NN5NdYpTiupaEi2IdTEiQFVdlMl2IcL8NQW6IoXAUBSMqgH/Ghdm9C1F71vOtjYKfG0uRJEGNFRy1kBJWYBbXyR5tM/ALdnh0uC2MhGx0yNogXQ5Aqyi8SfbQgZMSYbqg9GSU6i0Pr2lwKe8VIWVhWFZuTkB0qC0iaSGA7kMjy4vxkY23PGOQvV1dh52jLOqcxQ8suE/V4H+8VLyfZrBTvMzpXfLluquYjL/WGPxc+VxO4xAf4uaNH0qTtEPiQYSHfUsNHBvVmK3aqIGC9x3nLt2/HSTAywJj+HAlLsUYHS2HBiursrEFlSyo0yEOQQLENVhAJj9cmobw1IthUUqNLxbIISciOmtE4vSSgjGmXEfHGkp8B5UnpqymXstwd6YneshxpwMHsUgIFCAmZe6Hxjpq0aQaZYH1SCMwNhK4TuCyWLUuTqYtTjUTvAxCySawBRlQQWK4cptFnSAuoHag1d7pKu92DBJFHIb8D6bLIEMnlzXcT5OuVNqlb3keGQ/Zm4eItB3d6yzsI9vnhoULgLy4Nl0oUSLMQ3DrsLsKAHhMhSuJzASjCQ8s8Ji5dOuL0wqJCTkJ+o0eg1EbCjA8q69lwWvruXWx2++KAHQJgeKwg3LI2qsm5mpcaN43lsmBg2hcgm00RgL2FEpifIxOVXh1u/pRaUh1Cd0NN6MorIY5QCw1nq0C65ws/PzHuCvcXN6qlM+BWwrrgqcaG70dQCtx9xmVhaY9NUomDkH3gC2IxJf7MDgWMaZyLTdS4Ncxm4zStibdVEvfh7pDvYQ2G4tQyB99FYsLPe9uuklrVJhZkDs7xbFcIIf8IQn7TytUHy9FKjT3oK4+zShfdDzhmfzgJhExSoI8SLJ0BMli3NAVt5LOkRAWR4hVRm4FSHi5Bc6zFl6n4fVK5yqlSkGdbNQNAyI1b+kmxSsxYY0fjDKN5Xo/2PS8vhC+Xiw7rk4RjBfXs8g5qFFcobxUKtyXDWweL/cbrpyMQVFheevphKemXiMLd0Gg+gi8bag3TmmT0m4T8K8hmwhdpJsNvbE9fqV4HtXvxRWZAywS8DPkiYWFdugxCCUqzCfAIjrGFgTjeRRWxAHyJ6VtnYI8+8cOH0+QpyN6C8PvGN/rJs0/jWehSQB2FVBDyV1NjJBw4FgOOtAKrPmnVsPACEZouISRkWD+t+yM7Ed9yo+MFWBWxub3WzwoQmloJJGomXWBjZFcMWmPJ2DS6vxZvrKfGdX2lRyccnSm/YoAWAdTVqAmSFZeBsdulxiMgKagWjN3GcpFOQgZz0SVCfzgJefa8FPl0tQ0WMhJSHDpkBj4tHz4z4sjfmTIBhEqypYVPa+7ma3xlODYsWtsM6nqBkCcuiJNlKzOkMRJXeiExxCg1gMuuTUjLRmlVWpdhsG7L4Fl5egjBGgpCyVaWOw2GtVz8atZaJof6yva9yfLcG8nw8VryxwCcxN6HRpilVpmQsuoH1MdAwZ+kw9iEsPGQkIuUBY4QIVj6cctlYdLFSchI9KFlajJKAdhoqD5+RUCTxJcIPGkSB2NOOR/Ekw4arkWuE8YY2YYrDmMhMX+GFHMWnGcNbVrIvkdSYKTgWnwjm9XSwuZJg6oWR6sqKi7seA/rj1itxGhJ0yK2Th2oVGRcJF9/ly6T30cVOfyKhbXeQ6DR3ySzYFyphdFHr+CX3XRyx5VByEk/yuGYqdaiA1PRjxsHl0XzgbEm/59rZdnbsAxJDEYkadVkTYYvGSULLOuDlajMOreOWHwVD28jZcrgvHieV7/O98kDaI1TtDwDXCQS+AGRJr1tU6YMeguEbBllxmXBLz43iI/HhUpkEctiS4fCIhWkVLcOCDkoSgZ3bCJXBadJRZRGLP8wCwshMYQuCzxXOiyehbCCPlllM8e9YVBh1L8L7YbgO81CEMyZimsCUlAwt3gmSWJQID97iu7cYfCno7MJA5XCxp34Eh04mCbtXkS9Y3gqnkCpzjYok2nSkEnIMcgCRJYeC5kxFbncTV5SAhKtTHxTvUzaNjehTFP/ue1AuDawKZpqXvhWdmnqJ43uoA/TwtQE9eC/ZXNQy0IEueE00RWqkUQQQyUc38fj9GAFqRgEtcvu1XY5uCYZZT9RuQ6lNyPhyjGhJhKysdBgJSLFzQ4JHmtGpAPUwTiGb0ZNDfo1P55OlQUTOaxqZiRZ1mDgXCfEp8HnmowYgqWZDsdaWDghDK4G+qRp6sFvPB+EDG33k7cCl4481UDqhfKrm9aJfLoEKeKY3MLApVRJBKiwYdFdEciAHvzH4QiQMuPRhycujPeXVYkyCq4UFpriBvliO3+5tT7wwTiZ3PPVPLQ1Ck02LghbGDZgBIdL1bRLIfhdTccXuiwchEwL2Zc1nH1pIdMFlInYQRz809Z6S4L6gy2hTBE9Q8Esjg9M8LPqOH2F4qTDOVi5DnVdoMJ7Ec92881wj5GQ6V6LgWLEFy49JDqZ6hdm7vgHc4N7ZrDkqkl/Jk64OP+F71Qasl39UT88AMWsBKcafifHI8D64x+oD4IbBkNts2icVTbArLHEEKlba75ayAUJgdik5SDkyeboxXoVtBbij/hIsxcsQmbFsRkvBEPna6WImhcWnjliWVELizi5sqwN3hQYL1digBQufP60zj6dm8ijiIBHwZdrdMW4v5H87MqUPghWGZ+lIWQrqEer9MsZKB4DKRItOiosaIXeVHcGFmm49G93r1QIzZRKSCwoh/oTmdQhwwo1fdpg1b8B//EfqMfAY32vpt7S5FF8iZAWzECTKcTvqPdAyd7CT1NkwVL4tEkADh/i8y0DEeiBKoTqBFiJJOS9+9OkE+RytOx6PuQv9zW16ubaID2jouSLKTFSFP5YEnLN5rAAUafXbqwkvo81OpCdiEBVaxAy40ckZPPlo4UHi7YqaiXceZOfhCG4xRocflQc0JrCP/zCzpmbJsuYYIFH+GQKE0Qs1QCvfXIX6iF8lmAs5Eq3QiaF3oUkJaoNSFwkZB8QshdbJ7FKH1j3KUT942EhspA+CdnU7IDLgpYfg4p4qyObziadB8fLIWi7k+CSMZbi2DBIwBC04r6Nt0+ED/v732zS/b4AefAxEDJIJAXKk3UrRb5dBn8t3lccPfZKIajHZzMBPYfCIgpkzI3XxxSZQn1uFGhatx2khZMOGyMsGlkI7aAoxcN62eorMX9mShTSxKMgDSuBDDpr02GaNj4D1iSJmwAbXRZYa37hPGmwRoUVX2iGkp5ccNz8h3UH3lB7kJRLYmPgf5vSoCYLlbEWq/jRpNlJ8j1aczVA84TBz0AeinkzzRBgS0SEsIY0ccA9HbEIO2IvjA0m2wNQtc4PyqRUiTuUieYFmXJ1KchBG8Jnju9CFqKYNCKYYv5E31jEcqwNIARrbNFYdJpmQhPunxwbIDdft7Ag0dF5n+UKsZB/NoTMouAkWR5b41EH4FEQMqVHDBjdD41kH0iLvKDHNMEKHqlMlMnBwLS7GIGmbYcvHVNjq5V7A92C4c84z6t3l/vl8U7wjRWFX43FdkDIJM4jSHboioIrMCZM0iqL09N9QEJeNicUY7D6n9HaSkM3iJtvegv8FiJ92zSSSpFZUvU6KC/+B+sYiRdUh6AcjPHtjZiUJOt3ZJgvZ8vbvaRtJ2qs6SNlYI+EbAXxaOGloe5u6+eSJB5+UnN6AOHcClfI0H5QMzC7De+h62PHnnR5GlrSEPg+B7QKkAaNeLznl9JX4g95ybdImy4KcisOcq3dGoYPpHN2WMckA9M2C3/4vB1fhk8V5EJCpsyPG5Op0QCpGNUtdNsEwnLk+G7EUb4siLo4UrSPg8w/QpNMbjKTsHHS12l8mVSWoNTpL++gmBIs5JKV2DrKmi9T8IaEBcz9ClkdS/h89A23QxWzOJwMmO340VQU4mfhHVjIpiM4lCo+0JF5Uc6Iufh7c6oMnZIKAreyFMfBp1vr+kJm3FwoE+fFyQ+obdKfRfvRvoukn4LKfF99kiYbNmETwXDKwi9bJMoiZFbw86ebAL8ofhUCdCBNKwZsl6eHxcqewyzDigSahshefIJNRmkceMvSeShpGpAiUVWg2Khr+W35fEZeCFJOgzZYkLDhJGRKKfzC8NzM9sTATSH9QQjQAVt2ZhkFbTyz77iWrV6LjsAcfb3mZ5bxsfDzJHn/q3QpCyt8xusoj0pXFSv0JbMsJpKMHFILkxDCEqkU5tNaBgFTQroJafInUd3QH5K7eo9C8geJH3eBdGrCcVqJRap/yxfizEbATYiE/N5Yy0Lmpp+EwG396081JCjozHxFEHJc0i9yMHqiIRe2z8mgywIWcvP+sVbXC5BRxRKwBoYjEwoMSX+ctSAtP5uJkxgTmX+3qpGlg8RqVpmMAA3Ooud5DejbWh7rGAOLF+mp+HLQkrXhSx99DBYjRPqBjDcxyOKwkElG389FtImEDOshNQFlO6FkuPX2OSZK3avNPVIFhFyrgS++mAhwQevLjDGLkAXdOJCavJuELHJnDZH+/QuBbLARsIM1Frix95nUYkg5U8aic8TPf2UanyKP5UzR/XBcOAJ4xMHagLai8Wn3l1HSE+TwendI8uDLZdEhGzaLE3vs8uOCWCmGIRdHcZvr2zBVF19MmL92bG7GRQRf8PLl6TIO/l6rDgTcATgy8+L8AlrKBgtj42p07IP8D6pgSBiBIDH+vgPcHM0f4NHZCgalI1V9JYKYPpBXRaDdWm2UzTUdtHmeMX5kKg14OmH5TRZwgi4WxBQLF0okCNkK6uFZgBGbcaZCgx6Io75poYV/kEwvT0ABkAKy5kmiG9otNXuCG6ZlIk8AIf/IeEA71IhuYG1UybF+8va0FEgiM0wdi0rYs6OwWYXQXUFChouCQb2SZamwYLKH5TZq0y8WNVesRI9ZIMxi2JDoPjmOAPSBX7Ok2jWpUqQ2n4mWL+IdfEyuR+CTig3DK94qckSSpK7bD00GjHsH/7/27zQZPhUtnvCRbpBLNm1indj43IaA+U82IuZa53s//S5ZZi1mTIL9Dq0Ss2YjBCGH+cEqNzVfWJiIWYHcAC13lvm68B8zr5YG2cQw+CUEdoaQYZj8gWJdg1D9jy+uBWrDF45FghKCelyvidH+SsgFbReKTVohh05ONJYCc+dpIbOO7KP4AjBQZaxDWMmfIkU0kNESs5oY4nC4KfA5s7AY7WEZTcq4QCjX15gGokAK0nleUyYOkzseXIMFje7AJkpNCwgVx9DdoQWOzry/VTPBspCpK/12HgOMVqW1tHg0L40OlDv+NwcLOF36tr9fqsDaqnuft0RdA+sY2Sm0kLMQzU6Hr3Po+GQQMiLbINzqSCUe+yqK4+NLZwq/s6Id/kcjxtRkgNviRHQ6CMpq58NjOX//3uthKMd46li+dVea9CAhg1Amw0ItDyvalPvEkfQIjti/fBiHxBU7rFnUQW7PAI8V0KO7wLiIcFyeviBNvvndivDzK5wEAgnEZkj1CgmIga+iIC3ewx8sVhqZiNVhyRWF+4PM0B0yPVrFJeDbnIt6wBmOozOPvH9AMZGCKmZhCNLVbevYdJwWMh7WH92eaSkbySOOIh0RoIyB/5XJGk4LmY00aSEf2G6TUihvyaCbVdIS8sT3E2Xpz0i6waYF1Z18/Gakwy3iJePnxskvazJk0nNBUgFV83iNpJP+MgYV4FjqhAqdqpUs/zEbsAaCdGgE0G1RAqeAAATKSGo0Eh55FoX7sSnUg0tiKJKDWPOYhPvTYpwYKkNWeD0Dn1ZZSi5I56mG65EYe8VS4+0gZGSh0EImQfOEsnxlmoxfYMk3PpqI7tJM8UYQOxklMFNZPZS+c5KmkTvCt8zmJvgqrEUThZemM5UbAcbxwRIBd42NbjcQsh8WbWAgHe9W3Qo2kjV1ounOQvlOAuDUnPO6TrUK1wC/iykIbr+NZrcfoEAXKZwWMqsU8j4scG9tbv5wWaiFXKA4OS5ppRw8Od4sAtZBoE8z/pi3PIquv0bChqflMXFcL9R+hZW1CvWPN+yF5Apt4ffjCHkUX96fQJJcoXaTpmwV8K5Tcwb8qlD7n+f1+Wfvoh7uAli7OH4y3RhsxKBichy6KKBrBd0AXLS8Pwm5OKRji5BKbAiZFjJIL/EI9MFN5iCD7CT8eC2lGnrt1X8UgZeyrGpOQsaXE9lqGSDkF8eheeduVBgDmVxdBDrfMSgLiloW1MbSoszCl4gdiHkkNxF1KC5egVX9x1bUuoDVT7fAsDbBcltDFjeyHmwLCPkZQ8jInHspRIoj1ZcuhlR8WQ5szpDfPouXkiAPuixu6EA7CNZ1iKU4MH5CWEJj8KVeuREdrY1VhyL3fQONTzEMBEsFgfFFmsCe5TphgRn+2zpO4wj/rNVIlK6OZbOBDwZnMGPPP2Rd/vlhrNEV39SOLiDOKW8E6xGEHEBnMS1FjCUNmWP0C8fCB8pGtZ/Qh8zGAghQ0uWz4nub1KjlDd8u6xNblntiUpo82T/J6m6C93w1LQIYWkfz8eiZ9/PadJmHpJHCsGg5Z/En/EDIiaaKHkmmOrLzwrCuSMhMmaZ1HAyfbTHUvSYxk6j27ktFqVEEELEpzoDeuXxlSA9hpccdR80K9Py77l6rvRKtfuJiygDQbYTxBEekw7WFtRmHlHniCGwoPfOjZht/50b2MlLQ6Z8uBj//bKS++2DDodQvMQ7KmndRLgD3dfZ0bN3KV8LQzRqNXtCh2ibN+qAQE8Y9tn+AXFsdqh1ustjA7CjGFRLImqIkZFjzxmVBQoYhgbXEQlpGwWMKMnFzc6g46DbDuFLB8+0Gx8pxSBupk+aaDQchf4g2T9yoSOwJJ+my+KBA8dH5HuaKcFnEJv2GwMxYi5DxD6P+8UctlwUzpnhctCpZWdpbLgyzizM6jcUMBY58Mx+WJoJjbLLJKHMiSLpe7ZkI0sBcPc9r9aofURJxND6LLwh8k7xPhj0dgZ8sefAZtCiCVUehvrPZ5/9QWGgorFAmkbBiWCr8x0kHI+Tuh2bKrj07ZeSgp+UaZKU1gLQsCH5pQ8iUvcFCzkBwZ+gYdlNGNiGeoUxUlrw9PtSQjSmsA+stNd4GuRUbV1rBL1rJ+2Fd9kCTT24W7ChRrzqarPalH9k6lm8GIT+LGrr8ssxDXYMIWFck+BQczXehFdCf3ydISexXpSHtqvUYSBUKCyYH0JIj1k2vr5wAACAASURBVAyWtYLumTEz4hoJcnpvItiJaWwkYRKNCSLRUnMGlgxzmxq8/OFQWJx/IxBK/N4bg42zMAKGhhiQFQelx/cz4iQcgb3bsSEYEYeDkNlvMKAQNxcr8JkEfXl7BBfBy6a40GK0FGLxdmJElcoP3xopjtyBCnT+sPgMiUD50RGfOYE5T0QnmXdfDoEe3aqQNmZWrKwABh8h2zMYNY3TU7wkFmtrAlKOGdDjEfxa+H1DsWFRYeEk5FAkYxQpAXcKDAJuRrM+QoLJ9/DVolj7eDR2tbrdI2C5Amn4DayED5MyblLk4T/HfdJxSitcCjJBXIPr5NDyBCmFOhkkZLppfEFqdCXwlNLmeeqbsWav9ZaX+mKDgqXNU8FRNFKYND3d1IrmZkni7dwWtVNQlY1Ne+HZl0d7JEJpgh6Q8JG3RVU+VsqmDzkVjRgigln5jWnq2ATY2ZqdSVgXHJP9Pnr3FUbAsAKySgthAwrgWjfFupgJammTH3s+xsj8eKLj95AZkUtnMFOPBZGAdzSCerXVQi5QO1Jc0u9yAIRMPxktZC7QhGO+0gwuCwbVSMIs/j20u78chSwoBRZdOnbvo8ctCzkJAaC3oVNOR11iHv9plbFQzm31ZuMIamXqneu1ZfPfcvj4AIksxl5rVpEf+iXTcM0WsJDZcs5pITP63bqJn3RuA5IlIUPFkAILJiO6vDS4dxRq2a6W6aMHyzXYA+6EpC0A9Xl5tiSh0WWRgXG98FqibEfyBS3NUqi1O3cCg3ocMwsfQTGxA2m+OJJTxWG5LujDsEmfl5NlNzTX/NJGwnJcMD7CVH4jW2zemYrGpBYhs9JbCHys6fBXpyDgsuFnpJX/kSSlAENl+Dcr3gFiBSH7srgMrVtapbCWWEGtEDiY/NrxEWjAUfjc1HHG2AwJ4/9M6jQJ2oBp/b+JGeG/R86MNycX/rjD/b7Sohmak5LsWTYVHbm/mIQa0PC33vw4XAOwup0JC0xmICGT9DDzsPiy5EkEkSgRC0Eg0EXIICfWsv7+mwz5dVWW9OvtJ4WwcRmMENw8dDhVnn45xRRD6gFFReMHkSiBa4x6O17+gLb3o6mhIDBWefOR4wh0ToXml6p2umJIyCFItKBKBcITI3mLKobCQlBYsDMLxzZhTgLkczZ5sW2A1IPixBtjy0InG8rd/JgUAiZmINmGdXkcNUGW/JgmXVuhXRNqTNByTsFJaidOKuVvp5cD6okI1BthxxmglwL/etsXIDnECWlU3wCpVZtqEASLcb0t62Exf2gVCuJGRjdSZ2z2UUVhvZuETGQPQp1Blxqf/bsFqFsNy58NG9g7MsSHCR1WYMAbbOoFnxu161wfrfvHyFHI3DiHQdh8q5bwlcLon3cLNvySqGMheMauqOZnzjNG4WEFfL9+m7UsmFCE0wncPzfVVgu5gBHyKjlwfIyxju1YTBks8HPCRx5BrV1ypPGrYiG89XKQVEQqqyECx/856YE/SEPWHC2pNFiR0bCCGt05F18wZmed+7Vr51bZuqMPetahFCZT01iTGZWymBzSCfUhkJxlCJmWD+VOHZvBCmlhSdnSUUmNiRFBqK18Q/0+8vX3X8j770yQaxA8u7sdrKsI+KXxDWdadBZIlfKnnggUHoQlR2uTdYTfhUwsHZI3HqVpvW1D6clEbAZ1b4a+lZuBOUpmyKataTJgQqoh8kQ832I0vQyNwhcMBEmXRQ9od4siy+xdWLaBCLgQh+RYH/nlkyT0CLRJCWhLr70Zyg+U3aTV7gPZEsnAnEZQPa8VkkICcBqhS2TykECpgqLsLIaehtKiJGwjt6Isj99tYM2NguPzYTsfEOkcVFT7aIXVNy4M/PrhlDAcnekO4TXQLuvLDDm+LUWqXI/mtfV4Dc6gVVjIWMiYVtC3xOJ43AbWLl90cXw8HacRWsjYrKgP//arDOiBs6TFgz5SE8V32NWDdSa4aT2GzD0m31Qojv5/aMvF678+LU5278ySWZPgBsC9UlF35PA+9EScnWw0yKWL2qU8LMRg3CsIf/xBeCxOXxzuDatLiNWk4GkkKdEQmI6axya5BeuRUkXTcRwbRTwqBK75Hff5EZsC1jEtzSWTg/Bs9NODkGP8ZdOSWKmCDZGZLUE4QXizfjTW+wnUsOiEOAEX+sJxOF3AHUOyS0Gm4/SZmXLgsNO/S/+9SPsWULfAncRsOfFJl6f6JcBCxscxP1+8w4AzC8/DbYdNwA++O6Mjx8/YKorzbupLg/xbvxAtR1Bq1nRyd2yuTAixXFHM7La+XcZF5dh4uR6/foubPoOH8McjqFevlhJyASPk1SDk0Wbh00rKYqICCJk+ZNPbjYsBK+N/6Pn1Yj+Ws6R/kD/PVl+XLgxWg6MuGGS6D90aHmu+ADu7Q7d8DsR27d4uf2/oJWWQOh0AhyJ9myRkG0ho6BtJshHWrLOTNX3IndH2vjXqM5tyiZCVoV2clEQCSqVrHpJ578+R7z59zxDyPe1hwYQxRZVqBsax6bJA8gX66SU6uk2Ewz/9EY5/tJARDwTBQzEBn+8SkE5/FOantIiWCf9kZqVJKzRHTcN96bYYgGIyd9SHFYjnosuiByzk0gjaLQAhs7UUrffEaC/5bF4ifMlZUhqEXLshNgFU7vKGrMkEeJhggxPJvn2oiTvSattEK+yzGahcht9TjpeMQkxb/0GiDNwRRmnChByMs/E9sKJQyIgWpSCwFoNSjY8PJKkzgYHXgEsF5EGC5Oawb1OWrPksUUogxnpTcytJguzuBTdRUCGYejwie4GQo2EtDkQlN4wtAhY/CZkuizQQMtO7v/kSNTeguy0D0u2EetOB8FexEhs3iI/RsHTu52koagSrchycsZjLEZPjJQuKmdfhl6WrgOtj/3ZUflsICxlDqI4Mz2Lw5QdhCM6AHi3kEvAfsy6HNxQvXI9Nn4mTp1Hs5967adkyPdlH4tC1eh0SM75G7Y3NeH7naY4Ycs18PAnFjFiXGn5lKjs2LI6TKrfDUgVAwSgqxeL0rOC2dx962r2WAp+51SGFP+d6SMDaGjsZJ0Cr/615kehbP8zi+Syaj9XqDxcPCDkGqhTO55cgS5ZKpcWeGo86KdHYeHjKwibjg8xAf7gaeLqj0qLDwGiU2uTzkYCt8rTOIB83ZmfXGudXh2TMxgpfwI0UBEI2PmT442+qpU1OCxghr5H9x94wi5NeSQb1kqN9pTksZCOcsOLWxn/11Vx0iDYF37monDu7VRqRL+78yajW9vcfPtKt20LjPzvfa9+BPbJqdXeUzvQDIbNSGOw9ByHPnZ8qn6LyGI9plBLxSNkVadatmyK7jhYzJG+J6D5SsVRfFBOqL1PfmSi///CFVINx1rgjMtCgHmDzTsqVaCHTh8xuyqYoC9ULGNoXkCoZBQFVETCStoGQZ7+fLs+gT93VKIxOcrBOnJny8+8pMtrRd68hlBR9etIKBGHutmRv1Ut4yzRoRLkJpYF4kkDI8+C7DcC4S8NlcftjSAoBafsh3cu0oecGiG/j5g3pMgQyMLLxDShO9BrKOTKhgZZ7Ikjho09goRvtNAs58UvpZSzU8lVQppKNV1HHOQvWY9OekJ9h02FG2cdwxYThyE/FCt0EDNJ+Nh1qD9y/wROW5U9CJj6BwMkUlAdG0ccz0UE70cx4KAjqE9RooIXM+hOsXfzVF+ibuBaJ38ClA+RhZaCE8IWP1hRigmO0BQJc3MTnjUBKM1L3hoyJk2Lwp/d7hd3L4WKCL3fzX3gmtC0iIV9/LUqShlpZcdQfM1+GxehJyCzVyc2QSpfOQxNk7ktBElYYmzDI76XxabIRncv5ey5O05WGpxk+FnECWB+MR+NVHO1NAkW0n/z1eYJUq2/pgQuBkCmzZLblux+nyKJvkdyDVPuWWFss7JaG09KxA+gGMjPDMk5pKjiwb44AYsXKVlahtx8y/KBK2Y8uN+x6MvZ5f6l1nT/cRcA90V/iYF3729HSCTsEayAHIhholEgY04DXTpo0q6oV0EEGmuti8CcHsY6HUe0hkxDrLhBeN1YRNFJAzCs3BGfD1nTgSpdFvZpqIRcoQo5P+lP2HRtppGzmH1htiSd90J0ZHRewABjh5SKnBKv9w77S8lEr3Zjkyz+Wj9NattzlU+CzXP0LvoT9LrxQTkQfl6+/bifV4Lfzh7kH9ZXl7wWxfPZlmsz5GskD/IIwrRd/BrQPlPvvRUEgSutAyGzIWfmqF0DIdWX8tNGyZsUyqYquzvd3siLp7JlnlAm8Jo6Vj8DSwonRPBc8BLIUhMxnoU+P7aWYsv0O+tqVQXp0z6dx5CTh8XuL92bZYSUjUSSV1jTG8umUSNPvjxbyM7CQ70BniREoMUkyY1Q/EWN7exqy5IBLKVjIjToySMiEBKvzsh2yJwZKR8Cv/Rc6QvDU0Rr+3zaPwyUD32gaxhR7XOTNd1BYnzpac1K3CPn+/3lLjZqwUKk/9kdaLTasJ0CG4GWjme6Cwkqtm8M/Tt8qfPsM7H00HaoVzHHjtuRiK43YF0LvILNBML/ChpKSGfLM61aVPRboWQJrDFWAgQ9rYdtl6WeZ8jt81b74QLWK6Lz8CH2puA5Tk+Ha6YN6zrsOZslrPYLRUitQBr4RKxXB1s8Os4o80VL9+YcM+Wm1lRRSvzYkfXD1sJY0SYcHqpAQKCzgsuB1KQdbuxG1sVelSnn49md9ajPaa5IW8eDapKVojAZiw+QkrlXM2adv4qRhUowR2ESj2fVfJ0slJAwFwMcfXJgdxDkHGfI6tOar1mfIOHQHubYmdMJY0CnQkH/zrV2Wwz3jNEjoHOLp495bfOBnhpsF4/bxh0sDGzJbRIVify7EWhwYP8u7clOOQ3ecjARknAIff7gsCiHxg3p5znWmHVl7RkpnuQQde6RrU3H4KcxmYOmUHZED81VjKQBviT8eKLfVfa9A8dH5HuaKUFnEJa4FIb9uCJkFbFjmMCUGqdNwWdCnZyQ3WFCUB5VGIGwejuV0W5gUUZATClsZ3aWpw8vkElivf/3hK4MGLbrgQklMSoSs6AmpcxuICgE4E10GMWSCWb75wSbToKEl6aXhqE4Z1yzUGq5UHYQMQqTkLRYdQKqVGwRCvkHGTB0pa1f+JJVQda5pV8qiYCGz7iwXMo7jttRMefRZdjexCBbuPPl8NgmZQRa6W+hDRqPRD1EYBs/bpY2/lEP5ReOrNa6bDJm7KEk+/smyVmcMDZOiaA9PHTIt5Ieu8ZP+w1jch+oPPxwnoeKYgWAfMC0J1+K92CTsiIIFwTfKQRhCxnPd3R6kjd8Tu6UzgmCxQjYHi5061H3bUBXtAyQegGWYd0NC5thvvt5bGuD4zeAOS4ZyV+yEEqDOBqQ1yomMeTEUp40suJCYqeYjXy5KlkR0yH6wnWVl8YseAPldIP4YjgDu/6DY/dC3YK3jXgEg5E/fQrKDsdZhZYKQP10C1wc2LSaX+OOI0b2tN9LjrcAag1cxJ5Ok7dAUeRK1fVu0DJOew6KlYckAaQ3LkeqCRFiqS0CqG6Fn5pq69Xpqax31duhugeUdhg01CkEtKixIUj/8log+ftidjCuWmXDWacno5i0D2SItR6CTKeeV0Nl70it0DUGGBp1xMnytG1agMwf6MQbDpxIMlYQXTVBs1HastSDsmnSPkB0pl0vABjZzjh2uPGNmmHuQ8Cl8qYeeiA0agIDhNvCBy4K/s1qX0aeMTEa8j6dNc8KBS+HEAbgtMOVsFxYBV48JBpsLWpmYfEjr+tbPzAZggrfGknA8lePvJhBsxRQY86hZeQqkoSj4fIW8rghCjk/6S/YefcUQFb3ItJCToxHUQzshZwYY6xQEgZy5SEbBj1y9KgTwlIqBUEhkW9ejiM1GSIA6viaVK15jVAF+NBsu8GKnjNHjHpF7HkREHeoD0xkC3Y0ZsV6GEpxTPoT1AfJgKUTKfL4CQQTjC8sgHIMmMfAxX1ftZWh/q8uoKa/J2t9/loqwXB55mtYom5iyihsDVrS6oW2GlI5fem4uQTCRv5iNrDbqQtHjLQUWcmrsVfLatB1wc2RKlQr+8tQT8PtBHUBC5pcnITFd2qM7CBtejujCOtGBsgW6ZiaGtLwBld5egI8dFlkq0oOjj2bK7NmoR4wBlEZacOP2PE/DNYNjKwvYZ8E6I7k8DIUFNz4WhF/MurqU+eH5khBb+x2yrm9QC4JfUJr6lqsBkj10lGiFuhjU69JKo5e8y+BEiYa7iKcHcs0Xs1BcHmOmeiQVFvt6VF1b+3OSNGkJmRXUDbSQAyCfCYIEjK237N7p8sXSVJnzDbDCA1KSthguC2azpdFlgfTeT5CEsX4rSIjuDpDjrUjGaAjZWSDd0KwTjbl7oneseeZpYyKl0wsx0qm+v9z1FLuOe0M36y/zscHsRao4pcp3oGFyEFwjVnYefbTI2sPRPQIWLJMveLo5eiAVAT66RSy1Ad0j/J0RueBnJEmLFU/5eq3ThMNQyMBJCq6fPbC0o+CvjsAmGoj54DML5oAkb4oPwX3BDyEvCp3P/WXSXJxy4EDmmqd2m+TPZ76mrMj9d3ubAkMsiu9K6nBsDa4aLyBNGiqb/0ozbgeqb4qhABSf1SSoOHYTQ7z8n/ljBW/5x+ipHTJHU2eGBetZ4RBrJgWV/CqXayo1roH/6Qp6XRGEHJdIQkaRa6ZO0W0BQqaF/BCKgdO3RxKgu8JKF0W2WTUveQlF2E1JRroOEOw5edhbfl+GzKSISjJgwJhcLxEGL14Y8qC0aAWXBZT2bPnEimasq/ErCGTMAvTqA7ukgJC5GH96F4oABl2wIFOQpXccx+Nb6k6UyMJXyUvjXkIVsd+lLHx7j3Wj/xHaZgR1TMAE10xPzpBHe8JawRefC51JCV/MxrGeCQSQh7G2sz21qvzyV1F0H/4eFpy3PA3NaclS2CzYjsoIeNFKB/rRpSg7WaeqLxJRwmSbg5C73AkC72YpQJhBdRykM3tBgkQCu1JgqPtQRImME4QiQZa5B9cQ2v206gdTGF/Gyqjp8OZr8NHjt/RhxsM/PuddbzQPYBEjy0ozqg+8ORLWWdvHcdynEiGQFiuKIcHV8uEveE7W/MD7PkDPQP7enCZAyCcPQpY3K1Fub5AlZeGrpsVHMg4O5ckEzw5yYknN39YzOQgE4uipx6QGWsg4zMhHHwu6qdByowTLWwrB39u5DetQUJdLjFDofU8KVCmpUr+mj6xHMPEG1NYogcJU6XANJSCRY/Z76XIQPldu8P+rR/8x5W6Wf5SEXAxFhUJwPV+sBT40Mwit8plW01lXMJnGpcn0cBCy+bd1kuDnDOHhDwOjv/6cKUUjUIYUG1hhKCSsovdW5h3f54VTgJ01nLERsSJdZlJFqXv9KDmJZKO1G9fJ1PlvA1eoWHDdSiW95MF7UesDdUR4WjGnHYdSghu9cUeYIvPYJkHuCXFlZdfuneiIgo20rFXJztzHaPtZHY7lBpDs4V9awsOrIMW9JHBgD0sWOsI6p6Y6M1AiwgtL0aii2MCQRMVdybEB5PrLVgDeeEUQcnzSP9DYvmSqZrFBJq3bZBzZmvVFGxz6KI3l4VCuGnK2GzVBAL49NqaB4siXCAL/81cQ8wGbDBzxHvyAzGvN3evpXg9Ih07Q5uI474ujLzcGfgnXIsNrxNtpxiJClyhTUnL5QmijKNonQcT4ypE9WXLfvfOQUFBIBo4cKDs2rZdyOAI/9jS7evgbPTFfWbD+0lHMpUVfqBl4PMeXhm2PGNSjDIkWcjIIJzOxslxXe4g83qM1VCOoGodgS2sEEk3BG2OhQdJ30iq3WQ6W3Lih4SBkm3SDhfwifL9NWuDkgC8Yg0gHkfn17pJkiQBeV0VkSSNch73UAqC5JZHQjULJW5uBsMIwoOnDAlA/mkds1kdG0aCD3jL1XfpIrSMsB00yJgcFgQjbQ1NcGKnTdBcwo3DDJpsMQQ1namVJFOP7BUhZBEv5eUb8E1ASctqkBKl3A4rk18K1sOEUQqstNsw0zWhxjQy4dQLQXcQEC3kjurBwb26AbK216GMfdLnmkdliPRL/g3egX9+1lK0RI2alwY+FdWQMV57icW1f6G/pp4897C/lywzHKWQGNon9SMTA/bDZse8dNcfM0iuOxrqsi+yNv1uHeb4s94UhWb4cWYsOr6phXmcmo/XflrXJtOlouI7enJ0hTz6MrD34pdlEgdJEq7og3mcq47FhLZuO0vqEi6lwM7nhOux4p702bt8s8z4YJfc2xAkCQUfTbYSWK4LcGTZkSEppbE7XIkhXA6nuRUyyk6WW0NflQODKIOTEf2TX4REgGx7ZrOSQVGhomz8HCxlifS5uq1WP5XullfDkfUheQPKB6cMGyUMK9KUHd+J4hsLm1eq1QLAHZc1y+erQ4xHp0pmBNpAyrD0vZMfRgti7E12gx6LgC27MLwot5OUL2ckSPlF2r0ajzH3boIlt8aE5Qvca1lsO7tkupVEftxVdFigsFEDxP+tuwEKOR0Wv9i8mG3eDOfnjwb5GyrdpgErdMAgnPb6K3NHgDXl2+HOyA5I8tqZ6Fi2XwiPhJ4UVZ9VCgJ91XIJs2JUlH06IkG17kG48LEHeeT5Yat9m+X+TkNK6E26cj5Ylo06wF6RJSICADjkA5Ef9Kn31tJD/WJEuc79MRRse9HBrE4SjOfG0YyzYbPaHy43XvSbDJ78qB9Cv0KIl6+UP4muL6mBs5srNwigt4D7ipsFaED6wbhn4IS4sXpSW5G8Ce3Nnp0qJwply0y3WXIYhyyWYvlBuxnA3EBdzfMffjX/TQYlUWSTiBHH8YCOkQh+AsmS7y2ovUdhbnnwkCyRKvy/3Sybe0K1hZZdZrgGqWNDu6qC/3HnrTMjcTCEK2bJtmWzeuhhJJ0fMGFinozg61AQii47Wq+FeBwlzEzDdN0ywwkoZN1YoGyuYVHKrYQA3IHNKgSs8EcqZRg2G4zFC0B38Rzl07BspWiISleyqwSItahJAbDb40KWEFC9WFRmD509kyuWS1rflEQJXBiEnbURkfJixSJwuC9YYbv6c1SfOfB8cx0F+Oxi7iIKVtwBdEjKgBmCqNLOaEqDMWLEMrcvjfGTihNxrIzv0aSsdWiXAUgJZwQAmMfDLx35xbYegYhbul8rIOv5tZUKRQEF68HPv2ojNoc1HZvo7v9BFTh49JMVxdH6qC4MnsJDpQwZBUGN7GNZ7zzeY3GHVcqbsbSn8rOziwFTXRPhsU2Iqyd13jJYDRw5K18HPGl/y9eiEcf891MmCuMwxN0tiT6ZKx+EpMgAt2UMRIOo2PEHeHREk5a/l0RxjOxEg/6Ds5Be/paKnHSz2RyAjQzpwCNKq2SuOx2UGCRFoNxlffvCj0po0rZewOSRCFbB3Vy3IsIaZZ/tu5ffwab4JXKyzMbF4vDGK8EPHawiZwSWQk6VjdfS0cyoO2QYIul26eDb8YZff/kyRB5pYioaoKBIyC99wM7aUHNbLcgVY/k2LWFOg3gj26oIuyE2g5EiS4ZNelu174G/HWzpAm1scffHoSzYlJ0me1und+GSNZhZZlQ1vmQXr/szTE7uWr143CfVR/pHCCHyZdGMmHpr6FNSSQzHhHYkT21USHloZAbWr8N/h5n0m9mXGyD/wbePBfPHH+LTVOs0javxvLntlEHLiJhDyUOO/tY6oqFaFPPxmveONhez00Z06LlopnK/2QZopmp+a5phwWySDxDesRSEYFEtv12OsVK2InNhcvPoM6wMZ1x4c9UCgwfAXghyywExpCCI1ew696mBhUWXBAu8sLMS6AHQxJIKQd27wlqfaWrn8Tw/uLkcO75fSIPVW7VjIndl/VuSbrpid29LlbQQJi0GLy35tAbB4e3YKRkYbk0JAgrAA449VkvsajTbXW71+jbwyFeoTHGd7tAV5wRI0FqCBBJl/ON6bHnywsoIwbiYKcGxUnsQhKPT78kxZviFNQsCS7ZDGG4DgYCFkmflRk8XOH47EGh7zSfKGBEGeLEwTA7lUiajnpFrlm10IsuLZwDEvIrNxq7HU76jjJfXggw3CM1IPy1GZjhjGJ0o3DSs1WJYkr81ypUf2o6XU8ihpeONhjCdLiqDeB/2pdBdQ8mgFl6zi63aQKDcu4w9lMAmWZ0RQJ7m+VhPXmBiUfevD2XL00I9y521MA+YRnicYVlvDZp3pj3koiVNVhNxcp7VERpy/+l8ulou+5QpG4Iog5ISkLbJ9/2CrM4M5JtJlgWpvfeBDJiGf41WjvLeMRl1aui1MQXVYmScQOFr5PZQXfqVl3KtTcrV0xkwbI5XL/irFiyNJIQwk4stumiAmaG8Hjk4xLX7CYZFXQYpt06bI0oPVRB9rPLpx7N4YIk+1m2vuc/TEUek6oKtchWu0gJIgELI3alnNcR6bDK1dxPlMURzL/cJng48W1hyTJxJR0CjmUAV54L5xrnGvWv+HvDLldWmIjhC33ozqZMDD6Us2tW5pkZIIHU1PrZ5xsAYRvIo/eaO8t+xvscXHS/uWcFfAkg0DH/lRHoBnNP5RBwFaAi6rP5sdx+2jB1DToN4MNEVF2uFpr9V//4H+b+Pl2go2uathFjLaQOjmOrQWORoQqCFThzTMHOV5jIeKBCeZO2+dh1rE22XVnyOlCMp4BrDoDbPHjBvAQaQZkO9lRsK1Uhy1iq9G55JisDrhUgkpgcAYs/ByvujztwQgTrM8V1Ovb1IELgqBK4SQt8r2fSRkfKlAMiSvdGRUNYXKguUvnS/mlhktJkibnYKD4RoYB0IOQkqoqQUBtwITSn7+wY5OzFkyaeJH5th4oddhuBm+/a6HVIGULhC90IylDouWEWpfWJdG4cBymMzGYmo1iQXkH3cChLy5tLRrd6rr7sRZk2T7lu/kUSQshDCAhvF7gZBpeVq1bBlQs6Lrrhf+k+nTCWiWenxfdCzzuQAAIABJREFUOXnkwQk5hrwSyo1Js8cgbRvFcKCQ8IN/1qE+M+RnivXzRZ8pi8ZD87tvd5A0aTQBR+tI6TfiObmj3h6TSBCGaqTUoTKQ5Cydaarmwe/MwFI6ivOn4NkOHS0kXZ+adU7oaLUuXPyGVKl4DBYo6kRgp2HBezuyKOkXtdvha7dTXFsYhFsc0fmSiNJH4FTAXGt9KQL5E4ErhJC3y9a9g0y03hSeBxnaUJj7z7/TJRJH7CKQ90RGMpXVkiZZR+1T2VGU/NBvapJEIDHauQVlEVHvYMjw2RIedqY1dfpSoHU4dlIzubm+H+ROIF4mOhiLkwQKCxeSJHOkd6Zns7QlSCsatQySYhtKs0efcV0yDeltw0e3g+WYAksO9TFYkQuZbIYvHSGxnJF6c1A3pMpMvf27yiATcfIZq/WnVcvln3+mSp06VCBYmxSDSSyzyec2bgL8jAG9I0f9pPFdY5EKi0ZxjtemzfPRQ+0bBL5YuIZWJEoo+pWB9rgcNrYSsE4RDMxAnQbfCImKKIzaymyDpNH5/EkbOuq8QuCKImRfiNyttkQ83lP2ZBRmLgK2soqcUDv0niQz80NWFmMBGlTeOu6LBAO7DBkwBUfi87dwcl5t/vujpHy5NUj6gH+aASZHqqhxCJhKZ0ZEZYiTJBiLtOR9e66VTm2HnzH3e/evk43bRiBgBUJGsIzkbhwC5HRqkk0rHitoZDUDZYNOXhduj0MlkAwy9azrad0/KxDMeg/WqNV+KY3F1lFi0cuH2uFI+NvLS+kSpaVa+apwi6glmldfSr3ulYvAFUHIiUk7ZfPuF5BEYR3rKcey7EkrSGTJLE5Za1bdCpKcZXM6o+l8H8mNZSd//hlZXHXayp13PpSr1ZOaliC/r+1gsp+MQ9QkqMAhQPJkSU7qRPlvkDE7KRw4Uku6tB58Tity1V9IdMnaYdwIqOwLv20kJFWF4QcNRwALldC8rIpxqSion4XjvR9+FhwcjrZFYRDms2iQvhQBRcDTELgiCDkhaTeKrPcHISONlC6JU2d6p/rJ+pEJHFnkTF+pyQ1g4MhRq9eke4I0GTyKPgY/6OEbpXunAbme0z/+GmBUCyZTCpH6TGQnZdggrcuCNtQrDK6CcATqQhBYCkdhm2v1SJ9rZPWNikDBQOAKIeQ9KO/4vNHC8mXKm5B8HR0qjB7UIYUi4TIIZWrzQttqyyiE1NcS8IMWQanAUAT8gpDpBMVCih98z2VRXhHVY/SlCCgCisBlQOCKIOSklMOyffdkROCLS6Hg8iBWpnyyZxzkDSaQhkIvkDz5+rLWLyqoIc9W5U2XYXXpJRQBReCiELgiCPmiENE3KwKKgCLwHyGghPwfAa+3VQQUAUXgdASUkHVNKAKKgCLgIQgoIXvIROgwFAFFQBFQQtY1oAgoAoqAhyCghOwhE6HDUAQUAUVACVnXgCKgCCgCHoKAErKHTIQOQxFQBBQBJWRdA4qAIqAIeAgCSsgeMhE6DEVAEVAElJB1DSgCioAi4CEIKCF7yEToMBQBRUARUELWNaAIKAKKgIcgoITsIROhw1AEFAFFQAlZ14AioAgoAh6CgBKyh0yEDkMRUAQUASVkXQOKgCKgCHgIAkrIHjIROgxFQBFQBJSQdQ0oAoqAIuAhCCghe8hE6DAUAUVAEVBC1jWgCCgCioCHIKCE7CETocNQBBQBRUAJWdeAIqAIKAIegoASsodMhA5DEVAEFAElZF0DioAioAh4CAJKyB4yEToMRUARUASUkHUNKAKKgCLgIQgoIXvIROgwFAFFQBFQQtY1oAgoAoqAhyCghOwhE6HDUAQUAUVACVnXgCKgCCgCHoKAErKHTIQOQxFQBBQBJWRdA4qAIqAIeAgCSsgeMhE6DEVAEVAElJB1DSgCioAi4CEIKCF7yEToMBQBRUARUELWNaAIKAKKgIcgoITsIROhw1AEFAFFQAlZ14AioAgoAh6CgBKyh0yEDkMRUAQUASVkXQOKgCKgCHgIAkrIHjIROgxFQBFQBJSQdQ0oAoqAIuAhCCghe8hE6DAUAUVAEVBC1jWgCCgCioCHIKCE7CETocNQBBQBRUAJWdeAIqAIKAIegoASsodMhA5DEVAEFAElZF0DioAioAh4CAJKyB4yEToMRUARUASUkHUNKAKKgCLgIQgoIXvIROgwFAFFQBFQQtY1oAgoAoqAhyCghOwhE6HDUAQUAUVACVnXgCKgCCgCHoKAErKHTIQOQxFQBBQBJWRdA4qAIqAIeAgCSsgeMhE6DEVAEVAElJB1DSgCioAi4CEIKCF7yEToMBQBRUARUELWNaAIKAKKgIcgoITsIROhw1AEFAFFQAlZ14AioAgoAh6CgBKyh0yEDkMRUAQUASVkXQOKgCKgCHgIAkrIHjIROgxFQBFQBJSQdQ0oAoqAIuAhCCghe8hE6DAUAUVAEVBC1jWgCCgCioCHIKCE7CETocNQBBQBRUAJWdeAIqAIKAIegoASsodMhA5DEVAEFAElZF0DioAioAh4CAJKyB4yEToMRUARUASUkHUNKAKKgCLgIQgoIXvIROgwFAFFQBFQQtY1oAgoAoqAhyCghOwhE6HDUAQUAUVACVnXgCKgCCgCHoKAErKHTIQOQxFQBBQBJWRdA4qAIqAIeAgCSsgeMhE6DEVAEVAElJB1DSgCioAi4CEIKCF7yEToMBQBRUARUELWNXBZEMjIzJSsLLv4+/lelutdzEXseLPNlvGf3PtixqnvVQQuhIAS8oUQyge///KXVVKyaGG5vlqlM0bL31Utf5VULFMqT59kzqffyG9/b5AZLz6Xp/c528UTk1PkubFv/if3zuuHTUhOllmLv5JeTzbL61vp9T0AASVkD5iESx1C15fHmktMHtDrDCuRv3ui8f/kjrrXXeptzvt5JeS8gXfL7n0y46PPZdzz3cXLyytvbqJX9RgElJA9Zir+/UCchOzn6ytTBvbKcSEl5H+Pq35SEXA3AkrI7kY8D+5H0u3QtInMWvKldGx6v9SrWc11l7MR8ra9B2T6h59KUkqqlC9dUro99rCEFwpxfeaVmfOkR8tHZOFX38v6bTslIrSQPN/2cYkMC5Wpi5bIpl17pFBQkPRr11JKFIkyn3NayL2ebC4T3/3I/Oye+nWl2d0Ncly39QP3yKKvf5DdBw+7XAwJcDlMfu8T2Xv4iBSLjJCeOJ4Xxb/P9YpPSpZRsxfK8ZhYqVGxnLR/+D55fty0HC6LdPiUp33wqTXW4CBz5L+6RPGzXnLNpq3y9YpVMqTLU67fb9q5Rz75/uccP/v2tz/ws1/EbrdL3RrVpNOj9+d4tiea3J3DNUQciUG9mteY96WmpcvMj5fKxp27xcfbW1rh/bddX9N1jQnArXaVirLvyDFZ+dcGs7nuOXRE3gde2cd24OhxmfTexxKXmCSlihbBXDWVIhHhebCy9JLuRkAJ2d2I58H9SLqdH31AjpyMls+Xr5Rpg/uKt7d1vD2dkFf9s9kQd+v7G0l1kBnf/9v6jTKmbzcJDQl2fYaE0fGRJlK8cJS8s/gLOXT8pPjDAieJXF2yuCHr7fsOyJuD+xhycRJymeJFDUEej4kzpF/56jKGzJ1j4b9rV60k5UuVkPtuu0kSQK4k0ztuvE7uvaWu/LRmvXyzcrWM7/eMBAcGnIEWyfDpV8YZ4nsSz7Bz/0F598vvzPuc/msGGHu8NgE+9cry2D13yLotO+SDb3+Ukb26mE3l9NeKdf/I/KXf5iB0fobjd15z8sLFhkgHdmglgQEBMmbe+xIPQnT+njj3ad1CqpW/2nV5/ox4NaxTW5xjIpE/fu+dhnRJqg/fcas0uf1m85mBE2dKdHyCVLyqFIi5ktx9Ux3Zune/2eCc99m5/5CMmrNQmjdqKDdWryrLfv9Tvl/1p7zes7NEhYflwerSS7oTASVkd6KdR/dyEvKNNarKM69PFLouxvfrcQYhO8mMZHz7DbVco3n1rQWSZrPJiO7tXZ8Z0OFJWM8lcpBL24cayy21a+T4mZPkzuZDpiX3MqzE7KT1QIP68mDDW1zXGDLlHRBJqPRt85jrZ0OnzpIKIKV2uN/pr6nvL5G/YbVnDx7uP3pMXpk53/Wz195+F8QWbzYZ52vsvA9goabJ4M5t/hUh93h9gjwJcr2l9rWuz4/DNfs+ZY37QoRMLH5YvVaeevBe1+fnfPa1cIOchk3NScgR2DBeaP+E6z2bdu3NQcjcjJrcepM8dOetrveMn/8RCP6oa87zaJnpZd2AgBKyG0DO61tkJ+SMDFiHII+eTzwqNSqVz2EhxycmS7/xOY/2HNs2WGEkrOzEOfzpdka54XzxHi/iSE8LOPvPXgKJl4AVfTZCzszKku6vjpeJ/Z+FVelvxtKrVTNjmWe/RtM7b4NVWNr1M7oG/tm+66yqiX6wpq/Fc3FzcL5OV1nwPg2w4dS91nIVOJ+Rp4GzqUByYyHTnbAZ5NgSAdKb4II43Xq/ECE7x8FTzHa4jFJS0+QvbCy08J1jooV8Hax6WtDO1+mEzPuc/gy01PuNn14gVSZ5/d3xtOsrIXvajPyL8WQnZH6cPscf/lhnvqDZXRYn4+Jl0KS3zvjiHoY7Yvj0OZedkDkW3v+VHh2laFTEOQm5MPyffj4+Zzw5yf70V+9RU4yrg+6N8xEyXRMBfn65umZuCJkX+nvbLlny4wo5eOy4ue6z2PS4OTif83wuiyy4Wp4fO824d3iS4fjWb90hOy4DISeD3PuMnqKE/C++O572ESVkT5uRfzGe0wnZSRD0KUaDhJ2yNwbx+o6ZesYXd+3mbUZadbktZKe1/uYg+Jl9vM9JyJ2bPWD8obl5vTBhhrHI+7RpcV5CbnLbzfJwtmP9+a7967oNMm/pN+f1IZ/++dUbthjfenbMeiOgeU2Fsq63ZvchL/ttjXy2/FcjTXS+GNz80bFx8mf/1kI+huDmi3D9/Bca8NzMmb4n9wgoIeceK49959kImRH9XqMmmzFn1yHzvfVwlGfAzvnqM3qqlEWgrnfr5i5r73K4LJyqhOlD+rque7rLYszc900wMru/l5tIgL+/hAQFnoH5NyupdPhZpuGa3g5d7uLvV8jXK1e5COmdxV/K2i3bZOrA3q7Pp8B/TEuy8FkCX1SdjEWQjuN0an3nwr+7EsHO7IT76rOdcqgZsrsP+N/0y9M/zxdVHs+OnOgK6jGo+Mvav3MQ8vBpc+TwiZMX5bLoBhfQVXAbDerU2vVs/cZNF19seK8jaKmv/I2AEnL+nj8X0VFlwaNw9heJafWGzTkImVIxBtIqX10akqmikLXtkBSQ98T+z7jIiOTybwmZ97+5VnWhNI3SseyBwLP5kGlFc+Ogj7kOrOT4xESjijj9+J/9uXq+MQmqhSypB8UCyTwtPd2oQJzkyeBlrzcmS6Y9ywThSMZ/wKI9PZiZ/ZrdECwLxgZQq3IFSPKOCDPk6Jt2XnPB0mXyy7q/5YZrqhgZHZUpJO/JA3qay3z96ypZ/MMKo+zgz3nq4MupsiAe9H9TnlYOCpMNO3abZ45NSLwoQuaz9sSz8Rr8Q1nfydh4mTKot2uDKgBL+op9BCXkAjD1P8PyugZyq7Npd/m7SgiYlcoWoLNlZCDivw5f5DgTTGOQKvuLn7mxehUErk5ZqPxZHZBRdqvVel9VE+Datme/HImOkfog4y+h6aWFTo1t6WJFXJfm+2vC53o26RldADv2H5DQ4GC5q94NZ7WOs49xOeRx9OVeW6mC1KpSQXhtBvKyv6jGYFAswN/PyOrOdl/n+7kxfAu3QlxSkhkjyW7tlu05rnnw2An5/e+Nxvql/rkWNMPZXwyOrtm0zWi6KVlbhc2wMvB1BkdpoS/7fY2kp9uMNU1C/hvBS+e4V0NxQX86ZW/OV0x8ovyz49R7nD//ftVaY11znNm1zAVgOV/Rj6CEfEVPvz68IqAIeBICSsieNBs6FkVAEbiiEVBCvqKnXx9eEVAEPAkBJWRPmg0diyKgCFzRCCghX9HTrw+vCCgCnoSAErInzYaORRFQBK5oBJSQ/6PpP3oyxmTH6UsR8DQEhnY9VYbU08ZW0MejhFzQZ1ifTxFQBPINAkrI+WaqdKCKgCJQ0BFQQi7oM6zPpwgoAvkGASXkfDNVOlBFQBEo6AgoIRf0GdbnUwQUgXyDgBJyvpkqHagioAgUdASUkAv6DOvzKQKKQL5BQAk530yVDlQRUAQKOgJKyAV9hvX5FAFFIN8goIScb6ZKB6oIKAIFHQEl5II+w/p8ioAikG8QUELON1OlA1UEFIGCjoASckGfYX0+RUARyDcIKCHnm6nSgSoCikBBR0AJuaDPsD6fIqAI5BsElJDzzVTpQBUBRaCgI6CEXNBnWJ9PEVAE8g0CSsj5Zqp0oIqAIlDQEVBCLugzrM+nCCgC+QYBJeR8M1U6UEVAESjoCCghF/QZzoPn27Rrr3y54neJjo2XYoUj5eE7bpPypUvkwZ0855KrN2yWdxZ/KdUrlpNOj9wvAye9JRP7PyNeXl6eM0gdSb5HQAk530+hex9gyqLF8s/2XXLvLXWl8tVlZNveA/Ltb3/Igw1vkQca1L+sg5m15CvZumefvNG762W97r+5WLdXx8mEfs/Kjv0HZfLCT+SGa6pIl2YP/JtL6WcUgXMioISsiyPXCOw+eFhGznrPEGREaCHX57bu2S/j5n8g04f0vawWI4lvw47dMuPF53I9Rn2jIpCfEVBCzs+z5+axj5gxV1LTbfLas53OuHPXl8fKwA5PSjmH6yI5NVVGz1kkh46fFG9vb7nzxuvksXvvdH1uKizt4MBA4/JY+vNvkpWVJddVrSTdHnvYvOeFCTMkKSVFbBmZhvxfaP+ERIWHmZ/3erK5vP72AknPyDBkbbfbzUax59AR89malSvIMy0fyTHGz5evlK9/XS0ZmZlSOCJMerVqLsVxb+dr/5HjsHw/lrjEJAkLCZEeLZtKuVKWG+arFavlpzXrpPX9jWTmx0sl3WaTq0sUl8GdW+e4x9uffCF/bNxiflaiSJT0a9tSCgUHuXmW9Hb5GQEl5Pw8e24eO0n3sUZ3yP9urnPeO5Ncu706XhrVv1Huu7WexCUkyUsg82sqlJXeIFO+Rs1eKLS4b7muJnzQt8jR6BgZM/d9aXZ3Q7kHn4uJT5DZn9JlsV9G9uoiYYVCxAfEzjHw1fGRJhISFCQ14NPlz+rXqiEtG9+FDSPdkHaJwlHyUvf25r2/rP1H3v1imQzr1lbCcZ3Pl/8mP6xeK28O6iM+Pt5y4OhxeXnmPFzzfrm2UnlZv22nzMG9xz7fXQrhHp/++KvxmZOEuz/+sCHkYdPmSCQ2itcxNr6GvjlbYhMSZET3DhLg7y/zPv9G/tq6Q6YN7uPmWdLb5WcElJDz8+y5eewkPpJWvWurnffOAybOlOSUVJk0oKfrfSdi42Tw5Lddbg0SMslzaNe2rvfQomaQ7Pm2j5ufnc1lwTGM6vO0IVbn68/N26QOfLrO1xb4ncfP/9Dl6hiEABwt1UGdTlm0H3z7o9x2fS0pVbSw9B41BT7hyvLUg/e6rvHi1HeMj5w/cxJydtcJrXpa3c6fcQxVy17lsojTbRny7MiJMmVQb/Hz8XHzTOnt8isCSsj5deb+g3GTDDs0vU9uqln9vHfn+1o3aSS316mV4338ebcWD8t11SoZC5nk269dS9d7GDCMjU+UIV3anJeQJ0DdEBQQkOPa+48ck+9+/1NiExMlNS3duC+cZOn0cVcpW0ZaNLpTri5Z7Ixx0ZovGhHh+vnyP/+Sg8dOmGucjZBX/rVR5n7+dQ7/dhrcOXSL7Dp4yLhReN/x/Z6BaybnWP+DqdNb5hMElJDzyUR5wjC7ww1xT/260vSu2y5IyD2fbCY1KpQ7g/iebHK3NKhT+7IScu/RUyQ9PUM6N7tfosLC5MjJaJm15MscZJmYnCKf/bRSSLR80SLu2vwh89/cKMqXLin+vn5nPFffp1rkipCnffCpcVG0vPcu+NFLGkJ+Y/Z7SsiesHDz0RiUkPPRZP3XQx01Z6HsOXhE3jyLX5Sk5lRf8L/rVK+aQxZGgnr6lXHGRVG6WJHLRsh7Dx+V1xDgy+5O2Adr+dW35p9TnZGQlCzPj5smPR5/RGpVqWAIufvjTaV2lYpnhfhCFnJWlh0+83EyGS4afz+L1DPhR+cGphbyf71q89f9lZDz13z9p6Olz7fXG5OlT+sWUq381a6xzF7ytfz+z0YXAa5Y948sQBCNMjjn66sVq2TJjytc78mNy4JKjL+hec5OtiTP7C6Lzbv3yoQFH+V4zzAE2GglOz/Hz9Bf3OaBRq7x8GftHmos9WvXgGTvQxNgJKE6X7sOHJZiURHGJ3whQnaS76vPdJIikeHmEn9t3SnTPlgCQu5h1CT6UgRyg4AScm5Q0ve4EFi3ZbtM//AzCQVR0RpMSUuT5NQ0GdW3m4SHBLve13/8DIlPSpLCkKpRnhYPOdnLPTqA5CypWW4IefWGLciO+0Iiw0LluTaPSVEQ5OmEzGs9/cpY8fbyNkqMxORkqXRVGSFROwmZ0ruXps8x5BoU4I9xpUgm5G9TBvYyfmxauD3fmGTGFREaAhVFhpG/Ud3Be1+IkPm5V2bOl/1HjxmJng3PiwMBcEk1gcSyJYvrClIEcoWAEnKuYNI3ZUeAWt4d+w4KlROVript9LxnSyGma2DDzt2Qh4VBsVDaSMycL/6Or9BsJE4/bxaYLCzbz46ciJadBw7JTddeI76+PkYOR9I7/X58z7GTMUbLHAjSjU1INGTqfJkxI8vueHSsse6LRp4K4DnfcwKp4FtA5HyeimVKGf00XykIEqZi48l+PUrfkqAkyf6zGNxzw/bdUrXcVca65lgD/P3UQtavT64RUELONVT6RkVAEVAE8hYBJeS8xVevrggoAopArhFQQs41VPpGRUARUATyFgEl5LzFV6+uCCgCikCuEVBCzjVU+kZFQBFQBPIWASXkvMX3nFdnAZ4kyKL0pQh4GgKhwafki542toI+HiXk/2iGT0JixQI3l/UF7auwgcW5/n1Zb+a42IXu6fz9f3HvK+WelxljZwnUvIBPr3l+BJSQdYUoAoqAIuAhCCghe8hE6DAUAUVAEVBC1jWgCCgCioCHIKCE7CETocNQBBQBRUAJWdeAIqAIKAIegoASsodMhA5DEVAEFAElZF0DioAioAh4CAJKyB4yEToMRUARUASUkHUNKAKKgCLgIQgoIXvIROgwFAFFQBFQQtY1oAgoAoqAhyCghOwhE6HDUAQUAUVACVnXgCKgCCgCHoKAErKHTIQOQxFQBBQBJWRdA4qAIqAIeAgCSsgeMhE6DEVAEVAElJB1DSgCioAi4CEIKCF7yEToMBQBRUARUELWNaAIKAKKgIcgoITsIROhw1AEFAFFQAlZ14AioAgoAh6CgBKyh0yEDkMRUAQUASVkXQOKgCKgCHgIAkrIHjIROgxFQBFQBJSQdQ0oAoqAIuAhCCghe8hE6DAUAUVAEVBC1jWgCCgCioCHIKCE7CETocNQBBQBRUAJWdeAIqAIKAIegoASsodMhA5DEVAEFAElZF0DioAioAh4CAJKyB4yEToMRUARUASUkHUNKAKKgCLgIQgoIXvIROgwFAFFQBFQQtY1oAgoAoqAhyCghOwhE6HDUAQUAUVACVnXgCKgCCgCHoKAErKHTIQOQxFQBBQBJWRdA4qAIqAIeAgCSsgeMhE6DEVAEVAElJB1DSgCioAi4CEIKCF7yEToMBQBRUARUELWNaAIKAKKgIcgoITsIROhw1AEFAFFQAlZ14AioAgoAh6CgBKymyfCbrdLus3m5rvq7RSBi0PA29tbfH18xcvr4j6n7740BJSQLw2/i/p0VpZdko/ukfTZHUVAzPpSBDwVAe+wYhLYZZ4E+PuDlJWV3TVPSshuQppknJQUL7ZJTd10R72NInBpCHgFhEjQs5+AlP2UlC8Nylx/Wgk511D9+zfSTWHLyJTkxcMla/uv//5C+klFwM0IeHV9X0IjC8N94ePmO1+Zt1NCdsO8Z2VlSWq6TVLH3aeuCjfgrbe4fAjY2s6WyOKlxc+X/mR1XVw+ZM9+JSXkvEYY13cR8tjGbrib3kIRuHwIpLd5RyJLXiX+SsiXD9TzXEkJ2Q0wKyG7AWS9RZ4goIScJ7Ce86JKyG7AWwnZDSDrLfIEASXkPIFVCdm9sOa8mxLyf4m+3vtSEFBCvhT0Lv6zaiFfPGYX/Qkl5IuGTD/gIQgoIbt3IpSQ3YC3ErIbQPbAW0QtypTMg1sk7rkaHji63A1JCTl3OF2udykhXy4kz3MdJWQ3gOxhtwhqMVwCGnWT2C7FPWxkFzccJeSLw+tS362EfKkI5uLznkzIPmWqi98ND0jqZ6PMk3hHlBD/Bk9J+i/zJSvmsOvpAh/qJ1kn90v6r4vMzwIathWv8OKuz7ne6OsvwR2miE+RqyV50RDJ3LXmFELQsQY+2E8yNnwvGbv+zIGcb8UbJeCeHpI0rf0ZiHqXqCz+9R5x/NwuGdtXSca2lSKZGedF3ys4QkI6TxOvwFBJmtNLso7udL3fC6nBAXd1EC8fP7Hb0lw/t/2xWDIPb7f+7uUtAXe0F//bWknGlhWS8vEIaBgzs2HSXzL3rhfb+m9yjMMbuAR3ni72mEOSNLePSEb6qfuG474N20n6inclK/rgafgeAL4Lc7Gi3PcWJWT3YW2WnH39j1pUIY8x92RCDmjQWkJ6zJfoxy3Rv2/FuhL22mqR9BSJbhPsQobHb5JS/PCG5mfhb6wTn3LXuT7Hn/nVvFtChywTe2oiSChNvAoVFntSjMR0iLKu4+0jUQszJBnkmPrVpByoR86JF6+gUHP9jM0/5/idf71HpdBzH1vX5aL1CxRB4ZvYHuUk68Tes85eSKc3jYXK+0MILl6hhUHkv0uT2daxAAAYI0lEQVT8kPrm/Rw7n8GeloxknSzXNRInPym2NZ+5xiqZNrMxcfPx8guQmLahrnFEvW+XtO/flqSZnV2fj5iyW7yLlhN7cixugjoQAcGSOKmVi2h9yl8v4SPXithSJbp1UE58t/0m8UNvy+PVeHGXV0K+OLwu9d1KyJeKYC4+ny8JGc+VPP85SV06zjxhbgg56v0sydj9l8QPuMEizpBIiZwVLXH9rzOW5LkI2Ss4XCJnx0rW8T0gsjjz/uwvJyHHdATBJ0abX0XOSwTZheTYELJ/hmSZsfFHiR9xl/mxLzaLMGwWzo3HSchxz1WXzAObz5jF4NajjDUf3RIpww7CjnoP5Hxin8T2rGhhchoh+5SqKuHjt0jsM+XNs/BV6PnF4l+36an7OgkZv0tZOEhSlrx+Cl8l5Fx8mwr2W5SQ3TC/+ZGQ05fPFX+4JaJbwxrFkf6ChAx3RNSirDMIMrBxDwS2tortn+/OScghnabBfdBJEsc1l0L9luQgQU7P2Qg5YuZR8cbx30mwp08jNwd7cjx8uCXgkkg9Y5YvRMgB/+ssIV1mgtDvBLH/dNZVcjohR0zdB0u6qMRks3y9o0pLxLQDkvBKI4OB00JO++EdPHNH816Oz+CrhOyGb6Nn30IJ2Q3zkx8JOa53VQl7Yy38xgclrk/VCxKyb5VbJOzlX89JkAbmc7gsSGypX06QZPhb+d9JM7vAFfCWa2achBw/+CbjgvC97j4JaTdRUha/LimLBp11Br0KRUnkzCNwG8BHnJYkCbCUM3bAFeN4OQn59A9nJ/iwESvEt+qt5i1p8PkmT++Ug9xPJ2T+3Z5wQmI6Fc1xWf48ef7zOG2MdRFyXN/qxjWUFXtE4npVVkJ2w/cwP9xCCdkNs5RfCRlndQmfsE0SXmssoQO/PK8P2adsbQkf9ddFE7KTyGPahYk9JUHCXvlNfOmbzmZlOgmZ/lxTRxqBw+T3Bkjqp29ccPZ8qzeQkK7viE+JSnBNbHJJ0JyEnDStgwlWOl/Gkj/tFdJ9jgQgsEdyp8WdFXfUvOOshAyXCl0rp144OcBaT57dU1K/npyDkBnsC5+0QxJHPWROBmohX3A6C/wblJDdMMX5lZAzD2+T0P6fiV+dBw0RZmz55bxBPRKU08XhhDV06A9iW/slrMMxZ7WQw2GF+5S7/oxZiH26lEvlcbrLInIu/Md+/hLdyv/sswfi9K18sxmv8+V3fRMJHfAF3CHe5lku5LLwrXyTGW/GVqg5HK+o99LNpuEk3NMJOWzEr7hvPYl+ws/1GZ/S1SR83GahRZx5cHMOQubfCz33iaUggZ9aCdkNX0YPv4USshsmKD8TsrEEF8Iy9fY16ofzqSzoB7WnJEpM+3CDql+teyR08DcgsCIIxp08k5AdLoyUT16RlPdfPEV8DJb9PF+Spj5lfnY6IdOCDoNCwklyp08hVRiRC1KM24PuD75o4YY8+26ug3rcSPxq3CkxUJrYoTgxOICQs+KOSWy3MtbfTwvqeYUVlci3jsE90c+xAXlLxJQ98HUXl+gnA8xnnD7k7GNnsJCqkYytv6rKwg3fR0++hRKyG2YnvxMyVQJUC1yIkI3f9h0Qb7ZX+i8LJHFKG+snp/mQqWWmOyC6FSzKbJri0MHfgswbucjzrCoLqDKozjhXUI/64ZBus3KMxbbuS0kYeb9FjA7Z2+nTn12iFjHjsNFlu16QzxnXCnzSZyNk/iyo2VAJeuylU5/Bc8X2riJZx3afk5D9brhfQl9YqoTshu+ip99CCdkNM+TJhJwXj0+yowLCtv7bvLj8RV3Tt0Id6KGjxPb3sov6nOvNcH/41b7H+J+dpJqbC/lWb2gCfJn7N+bm7R77HtUhu3dqlJDdgPeVRshugFRv4SYElJDdBLTjNkrIbsBbCdkNIOst8gQBJeQ8gfWcF1VCdgPeSshuAFlvkScIKCHnCaxKyO6FNefdlJD/S/T13peCgBLypaB38Z9VC/niMbvoTyghXzRk+gEPQUAJ2b0ToYTsBryVkN0Ast4iTxBQQs4TWNVl4V5Y1WXxX+Kt9758CCghXz4sc3MltZBzg9IlvsdpIacs6CleR7dd4tX044qA+xBIaztXooqXFH9fX/FCRT995S0CSsh5i6+5upOQo48dkuD5HdxwR72FInB5EEjv+rFEhocqIV8eOC94FSXkC0J06W8whGyzSUJisqSuWSyha+Zf+kX1CopAHiMQ/fgMiSpaQgoFB4mfWsh5jLZ1eSVkN8BsR3UxW0ampKalSWJyisTHRovPiV3ilXmql5sbhqG3UARyhUBmQJh4Fa8kEWGhEhIQIIEB/uLjg84p+spzBJSQ8xxi6wZZhpQzJC0tXVLT0QooWx83Nw1Bb6MI5BoBXxBwkL+/+OOPr4+3+o9zjdylvVEJ+dLwu6hPk5QzQMqZmWgvdFGf1DcrAu5FwBsBPFrFSsbuxV0J2b14ozY62vy4+Z56O0XgYhGgnkJVFReL2qW/Xwn50jHUKygCioAicFkQUEK+LDDqRRQBRUARuHQElJAvHUO9giKgCCgClwUBJeTLAqNeRBFQBBSBS0dACfnSMdQrKAKKgCJwWRBQQr4sMOpFFAFFQBG4dASUkC8dw4u6QkZmpmQd3i7Jn70sWTGHLuqz+mZFwB0I+FaoJ74PDpKgEGTsaUEhd0DuuocSshvhZqZe4pQWYk+KdeNd9VaKwL9DwOfhYRJao6EwSURf7kFACdk9OEsmCgylHdoqqXO7u+mOehtF4NIR8O+9VIKDg5WULx3KXF1BCTlXMF3am5idlw7rOGlSM5HUhEu7mH5aEXAjAlkd5ktEsZJIodbiQu6AXQnZDShrCyc3gKy3yBMEtGNInsB6zosqIbsBbyVkN4Cst8gTBJSQ8wRWJWT3wprzbkrI/yX6eu9LQUAJ+VLQu/jPqoV88Zhd9CeUkC8aMv2AhyCghOzeiVBCdgPeSshuAFlvkScIKCHnCazqsnAvrOqy+C/x1ntfPgSUkC8flrm5klrIuUHpEt+jFvIlAqgf/88QUEJ2L/RKyG7AWwnZDSDrLfIEASXkPIFVXRbuhTV/uCx8y9aSsFdXi/gFmAHb/vleEl652zX4sJd+Ft9qt7v+bk9LluR3ukna8nmun0W9f2ZDqoy9f0t8/9o5QAhq8ZIENR8qMW1CxJ6enON3hfp9Kv43PnTqPrZUSZ7bR9KWTT/ntPG+MZ2KiD3hpPUebx+JWpgh0Y+fSvP1CgiW8HGbxLtIWfMWpqzH9aspWScPmL9HTN0jXsHhEtM+0nWfiMnoBl64jMS08s9xb/8bH5ZC/ZZIbM9KknV0Z85ne2SwBLV85dTPstBh/NM3JHnRYNfPAv7XWUK6zMwxPvH1l/DX14jP1TXN+7JO7JW452uJPSX+v1yuOe6thOzeqVAL2Q14e6KF7BVaWCLfPmFIOHFMU/Epd72QgG2bfpKEl+40qDgJOX5IfREfPwm871nxv7mFxPW/TjL3rjfvITGmLnlN0td8fopQQdyZ+/7OgayTuG1rPpOE0Q/n+J2TkK37+ErAXZ0koGFbSXj1HrH9veysM5QbQo56L13stjSJe+5akFychI9cC3K+SqKf8LtoQo5466h4hxUTe/xxielc7KyEbMaPug9+te/F5jNMUj8fI8kL+pn3no2QI2fFCEk5YcSdZpxhL34nXoWiMD5f7B6e0XlRCdkNBJHtFkrIbsDbEwm50PNLYJU++P/27j227rKMA/jbru26ruvWCXInchEZIRpB/QcBQxQvgMYoShDEbMIcYEQ0gEbYFEEy0BBRYA4JgkyiEo2iAZVIEEQwqCQagT+8TQJy2bpetnW9+f5+3enabqXd1v54Fj7nLy/nnPc5n+fJ97znPb+dpnVnbPsnsUWIzDl9xcgurhbIo3edRRD2PnRn6rnhrJFA7rl5Ser97a0TStbnHeeCG9emnpsWp7lLVw8HzqhbLZDHr9P3+D2pa+Vpux7IudYtj96dur/x4fI5Zu1/ZGpZ8q3UdeXwp4Cd2SEXr7vrq+9K877067TuzBzoA/0jdc3ZukMeX//gC/9OHRe+boeB3Hj0SWne5fenDRe9IQ08+3R5n7rG5tT+/U2p6+r3pL4n7qtgMidfQiBPbjSd9xDI06k5wXNFDOQiYAZf/E/quGD44/yObuMDua65NbV/ryv1fPuc1Pvg8LFFuUPOH8+3/Omekafof/KhMU/XVnwsf+0hqWPZgan9jo2pc8UJqf/vvxu5z/hALo4a2m/vSRvXXFY+945uU9kht13zeGo45JjUe/8taeOdl+Qji7wjHXWbaiDPPXdVmv3O88o3qoV3Daae1Uvzc66eOJC3Hp8UDp3Lh498xu+Q55x5TZrzgUvHHmGUnoOp7y/3pq6vva+CyZx8CYE8udF03kMgT6fmHhbIA/l3mTdcdMSkgTzU9WLevtWXH6cHO55LHZ/af+Qj9Y7OkEfvFIvHLbxrIG364RVp091XpvbbOtPgumfShosXbRfIo9cp/vP6c/fJ6wzuciAXD2w+5eLU8vGvl89RBPKGS49Jgy/8q/zvUw3kYtdahGT3dR8sz6RnHbBoTJDWdshl/akuFcdBxRHE+nNaR3bS4wN57gW3p9knnL19IN/Zm/rX/jV1XnZsBZM5+RICeXKj6byHQJ5OzT0pkHNIFj+Q37HsoEkDufubZ5Y7zebTPp931AfnnfXakccUgfxyRxYNi45PbSseTJt+/OXyMQ2HviU1HnPKmCCq7ZCLdYqwm/Ohy/OXW0engbV/m7C2qeyQRz+4ft/DU9uVD6f6eXuNHNNMJZDr2/dPC25+Jm2+94Y01L0u1bXtnZpPPj+tO6s5fwvaWy5RC+Si/rrmefnLu1Wp+/qPpC2P/GikhO12yPloqDgiGvPmle9dvK4tf/xpGf4RbgK52i4I5Aq8Ix5ZFGe5s09akgOhfkSgZcmNOWyWTXiGXBwjpN6eMV9qTRbIxe6yOBsd6t56NUSxh2x9Td4xL8875q+Ua48/smi/bUO+5GAgrV+88GUDuXPFifno48HyPrXz11rA1S/YNy246b+pY+l+aTB/EVe+GRz21tR29WP5So+WfKXHpuErHA5585hz9GIHX3wBWHujarvq0dRw+Nu2q78vr9uV1x8dyLW1i3Xrc3Cv+9jw1SvFbXwgzzr4jWn+tU+URxq1I576+fukBd95LnVecVzqf+r3FUzm5EsI5MmNpvMeAnk6NSd4roiBXDunHXz+n/kSs4tyMB1bXpZWnA0XZ8TFbfwZctOxp6bWS36eNnz2yDSQf2y/uBWB3PfnX6QioGq3oY2d5SVrtTV6bsmXyo26hK3YcRY7yfWfaCsfMj6QG486Mc1b/kAOq3zW/OS2s+bRvMUVCnVzF6SeG89JQ5u7U+tn7iqvcKhdQVHW9oOBfHSwOfWs+mR5edzcZbem+oUHjLzhNC7K66x4oNyR9uYd8OyTzk1Nx52Rv1R7b/5S7d6try//YYHfrC7PjWu3ItSLcK8F8Pgv9YowXrD6+TFvOju6ymL+9U+nWfseVp6VD23uKY9W6vLVFevyG0aUm0CuthMCuQLviIFcvOxip9p21SM5FF5fnglvXHNp2vyza7cFz9brkEd/rC6DsGnO8Ef2rYE8nnDwpbWp4/yDU8vZ16XmUz+33cfyxjednOZ98b58HfHeOShf3C6Qi+dbsOq5VN/aPmaXOX6defn65cat1y/3P/Vw/rIw71jzznrkli/Va81ntUXIFreB//0jdS1/ez6qeXbkLo1HvSO1fuGX5WsqjiC6Vr4/X2r3q/L/bzr+rNR64R3Du+x8dl671XbjHZ8+NBVvaDu6ymL+yifSrIOOzm8Qw1ex7PA65Py/tyy+ITW/+8LyPlse+0k+6vhoLrSvgqmc2hICeWpO03UvgTxdki/zPFEDuYKXbok9XEAgV9tAgVyBt0CuANkSMyIgkGeEdcInFcgVeAvkCpAtMSMCAnlGWAVytaxjVxPIr6S+tXdHQCDvjt7OP9YOeefNdvoRAnmnyTwgiIBArrYRArkCb4FcAbIlZkRAIM8IqyOLalkdWbyS3taePgGBPH2WU3kmO+SpKO3mfUZ2yNefOuZXwnbzaT2cwIwLbDn71tS+34GpqaEh/7ubbb81PeMLv0oXEMgVNL4WyN0Pr0kNf9j24+4VLG0JArsl0Lt4TVq4114CebcUp/5ggTx1q12+Zy2QX+rYkOZ+t/hXYzF+fHyXX5AHvioE+vc+ItWdvjK1tbYI5Io6LpArgB4czL/g1deXujduSus7u/LvP5yX6vrzL4VN8NOSFZRkCQITCgzl33PefNgJaeD4pTmM56aW5ubU2DDLkUUFMyOQK0Aeyr8T0T8wkHq39KWNm3tTd8/GNBjkT/RU8PItsQcKNDU2pNaWljSnuSk1NTamWfXbfhVwD3w5e0zJArmiVo0O5S19xZ//cWxREb1ldkGgPgfw7KbGfFTRmP9+bP7jBLvwHB6y8wICeefNdvkRRSgPDA6m4kzZjUBsgbpyVyyMq+2SQK7Wu1ytCGY3AtEFXOZWfYcEcvXmViRAgMAOBQSywSBAgEAQAYEcpBHKIECAgEA2AwQIEAgiIJCDNEIZBAgQEMhmgAABAkEEBHKQRiiDAAECAtkMECBAIIiAQA7SCGUQIEBAIJsBAgQIBBEQyEEaoQwCBAgIZDNAgACBIAICOUgjlEGAAAGBbAYIECAQREAgB2mEMggQICCQzQABAgSCCAjkII1QBgECBASyGSBAgEAQAYEcpBHKIECAgEA2AwQIEAgiIJCDNEIZBAgQEMhmgAABAkEEBHKQRiiDAAECAtkMECBAIIiAQA7SCGUQIEBAIJsBAgQIBBEQyEEaoQwCBAgIZDNAgACBIAICOUgjlEGAAAGBbAYIECAQREAgB2mEMggQICCQzQABAgSCCAjkII1QBgECBASyGSBAgEAQAYEcpBHKIECAgEA2AwQIEAgiIJCDNEIZBAgQEMhmgAABAkEEBHKQRiiDAAECAtkMECBAIIiAQA7SCGUQIEBAIJsBAgQIBBEQyEEaoQwCBAgIZDNAgACBIAICOUgjlEGAAAGBbAYIECAQREAgB2mEMggQICCQzQABAgSCCAjkII1QBgECBASyGSBAgEAQAYEcpBHKIECAgEA2AwQIEAgiIJCDNEIZBAgQEMhmgAABAkEEBHKQRiiDAAECAtkMECBAIIiAQA7SCGUQIEBAIJsBAgQIBBEQyEEaoQwCBAgIZDNAgACBIAICOUgjlEGAAAGBbAYIECAQREAgB2mEMggQICCQzQABAgSCCAjkII1QBgECBASyGSBAgEAQAYEcpBHKIECAgEA2AwQIEAgiIJCDNEIZBAgQEMhmgAABAkEEBHKQRiiDAAECAtkMECBAIIiAQA7SCGUQIEBAIJsBAgQIBBEQyEEaoQwCBAgIZDNAgACBIAICOUgjlEGAAAGBbAYIECAQREAgB2mEMggQICCQzQABAgSCCAjkII1QBgECBASyGSBAgEAQAYEcpBHKIECAgEA2AwQIEAgiIJCDNEIZBAgQEMhmgAABAkEEBHKQRiiDAAECAtkMECBAIIiAQA7SCGUQIEBAIJsBAgQIBBEQyEEaoQwCBAgIZDNAgACBIAICOUgjlEGAAAGBbAYIECAQREAgB2mEMggQICCQzQABAgSCCAjkII1QBgECBASyGSBAgEAQAYEcpBHKIECAgEA2AwQIEAgiIJCDNEIZBAgQEMhmgAABAkEEBHKQRiiDAAECAtkMECBAIIiAQA7SCGUQIEBAIJsBAgQIBBEQyEEaoQwCBAgIZDNAgACBIAICOUgjlEGAAAGBbAYIECAQREAgB2mEMggQICCQzQABAgSCCAjkII1QBgECBASyGSBAgEAQAYEcpBHKIECAgEA2AwQIEAgiIJCDNEIZBAgQEMhmgAABAkEEBHKQRiiDAAECAtkMECBAIIiAQA7SCGUQIEBAIJsBAgQIBBEQyEEaoQwCBAgIZDNAgACBIAICOUgjlEGAAAGBbAYIECAQREAgB2mEMggQICCQzQABAgSCCAjkII1QBgECBASyGSBAgEAQAYEcpBHKIECAgEA2AwQIEAgiIJCDNEIZBAgQEMhmgAABAkEEBHKQRiiDAAECAtkMECBAIIiAQA7SCGUQIEBAIJsBAgQIBBEQyEEaoQwCBAgIZDNAgACBIAICOUgjlEGAAAGBbAYIECAQREAgB2mEMggQICCQzQABAgSCCPwfwtx6dOu5dkYAAAAASUVORK5CYII=;" vertex="1" parent="1">
          <mxGeometry x="20" y="20" width="356" height="633" as="geometry" />
        </mxCell>
        <mxCell id="xRkAMs9unRZzOuT88SSD-45" value="" style="rounded=1;whiteSpace=wrap;html=1;strokeWidth=3;dashed=1;strokeColor=#C2C2C2;fillColor=none;" vertex="1" parent="1">
          <mxGeometry x="56" y="130" width="280" height="130" as="geometry" />
        </mxCell>
        <mxCell id="xRkAMs9unRZzOuT88SSD-46" value="" style="endArrow=none;html=1;rounded=0;exitX=1.012;exitY=0.097;exitDx=0;exitDy=0;exitPerimeter=0;strokeWidth=3;" edge="1" target="xRkAMs9unRZzOuT88SSD-47" parent="1">
          <mxGeometry width="50" height="50" relative="1" as="geometry">
            <mxPoint x="336" y="194.5" as="sourcePoint" />
            <mxPoint x="420" y="194.5" as="targetPoint" />
          </mxGeometry>
        </mxCell>
        <mxCell id="xRkAMs9unRZzOuT88SSD-47" value="&lt;font style=&quot;font-size: 17px;&quot;&gt;Logo de la aplicación&lt;br&gt;&lt;/font&gt;" style="rounded=1;whiteSpace=wrap;html=1;strokeWidth=3;" vertex="1" parent="1">
          <mxGeometry x="410" y="164.5" width="160" height="60" as="geometry" />
        </mxCell>
        <mxCell id="xRkAMs9unRZzOuT88SSD-51" value="" style="rounded=1;whiteSpace=wrap;html=1;strokeWidth=3;dashed=1;strokeColor=#C2C2C2;fillColor=none;" vertex="1" parent="1">
          <mxGeometry x="96" y="310" width="200" height="90" as="geometry" />
        </mxCell>
        <mxCell id="xRkAMs9unRZzOuT88SSD-54" value="" style="endArrow=none;html=1;rounded=0;exitX=1.012;exitY=0.097;exitDx=0;exitDy=0;exitPerimeter=0;strokeWidth=3;" edge="1" target="xRkAMs9unRZzOuT88SSD-55" parent="1">
          <mxGeometry width="50" height="50" relative="1" as="geometry">
            <mxPoint x="296" y="355" as="sourcePoint" />
            <mxPoint x="380" y="355" as="targetPoint" />
          </mxGeometry>
        </mxCell>
        <mxCell id="xRkAMs9unRZzOuT88SSD-55" value="&lt;font style=&quot;font-size: 17px;&quot;&gt;&lt;font style=&quot;font-size: 17px;&quot;&gt;Datos de la cuenta de usuario. El campo de la contraseña es de tipo textPassword&lt;/font&gt;&lt;br&gt;&lt;/font&gt;" style="rounded=1;whiteSpace=wrap;html=1;strokeWidth=3;" vertex="1" parent="1">
          <mxGeometry x="386" y="250" width="196" height="140" as="geometry" />
        </mxCell>
        <mxCell id="xRkAMs9unRZzOuT88SSD-56" value="&lt;font style=&quot;font-size: 17px;&quot;&gt;&lt;font style=&quot;font-size: 17px;&quot;&gt;Botones para iniciar sesión o crear una cuenta. En caso de crearla o iniciar sesión sin haber introducido el primer movimiento, se mandará a la pantalla del primer inicio de sesión, en vez de la principal.&lt;/font&gt;&lt;br&gt;&lt;/font&gt;" style="rounded=1;whiteSpace=wrap;html=1;strokeWidth=3;" vertex="1" parent="1">
          <mxGeometry x="386" y="410" width="250" height="210" as="geometry" />
        </mxCell>
        <mxCell id="xRkAMs9unRZzOuT88SSD-57" value="" style="endArrow=none;html=1;rounded=0;exitX=1;exitY=0.5;exitDx=0;exitDy=0;strokeWidth=3;" edge="1" target="xRkAMs9unRZzOuT88SSD-56" parent="1" source="xRkAMs9unRZzOuT88SSD-58">
          <mxGeometry width="50" height="50" relative="1" as="geometry">
            <mxPoint x="316" y="515" as="sourcePoint" />
            <mxPoint x="400" y="515" as="targetPoint" />
          </mxGeometry>
        </mxCell>
        <mxCell id="xRkAMs9unRZzOuT88SSD-58" value="" style="rounded=1;whiteSpace=wrap;html=1;strokeWidth=3;dashed=1;strokeColor=#C2C2C2;fillColor=none;" vertex="1" parent="1">
          <mxGeometry x="96" y="420" width="200" height="100" as="geometry" />
        </mxCell>
      </root>
    </mxGraphModel>
  </diagram>
</mxfile>
